<svg xmlns="http://www.w3.org/2000/svg" xmlns:xlink="http://www.w3.org/1999/xlink" width="500" zoomAndPan="magnify" viewBox="0 0 375 304.499991" height="406" preserveAspectRatio="xMidYMid meet" version="1.0"><defs><g/><clipPath id="4f0044b9ad"><path d="M 73.265625 27.332031 L 296.664062 27.332031 L 296.664062 123 L 73.265625 123 Z M 73.265625 27.332031 " clip-rule="nonzero"/></clipPath><clipPath id="864cc49e8c"><path d="M 50.992188 122.507812 L 274 122.507812 L 274 218.464844 L 50.992188 218.464844 Z M 50.992188 122.507812 " clip-rule="nonzero"/></clipPath><clipPath id="7aab2d54a3"><rect x="0" width="350" y="0" height="287"/></clipPath></defs><g transform="matrix(1, 0, 0, 1, 7, 0)"><g clip-path="url(#7aab2d54a3)"><g clip-path="url(#4f0044b9ad)"><path fill="#c9a227" d="M 73.804688 122.828125 L 110.691406 122.828125 L 139.742188 86.089844 L 102.851562 86.089844 Z M 259.773438 27.324219 L 182.578125 122.828125 L 219.464844 122.828125 L 296.664062 27.324219 Z M 185.859375 51.324219 L 128.191406 122.828125 L 165.078125 122.828125 L 222.746094 51.324219 L 185.859375 51.324219 " fill-opacity="1" fill-rule="nonzero"/></g><g clip-path="url(#864cc49e8c)"><path fill="#0e1422" d="M 273.851562 122.828125 L 236.964844 122.828125 L 207.914062 159.566406 L 244.804688 159.566406 Z M 87.882812 218.328125 L 165.078125 122.828125 L 128.191406 122.828125 L 50.996094 218.328125 Z M 161.796875 194.335938 L 219.464844 122.828125 L 182.578125 122.828125 L 124.910156 194.335938 L 161.796875 194.335938 " fill-opacity="1" fill-rule="nonzero"/></g><path fill="#bc9c22" d="M 190.117188 72.140625 L 187.402344 72.140625 L 187.402344 57.175781 L 191.273438 57.175781 L 195.0625 68.179688 L 195.277344 68.179688 L 199.042969 57.175781 L 202.820312 57.175781 L 202.820312 72.140625 L 200.015625 72.140625 L 200.015625 62.253906 L 199.757812 62.210938 L 196.300781 72.140625 L 193.832031 72.140625 L 190.371094 62.210938 L 190.117188 62.253906 Z M 190.117188 72.140625 " fill-opacity="1" fill-rule="nonzero"/><path fill="#bc9c22" d="M 251.691406 62.804688 L 251.691406 57.175781 L 254.640625 57.175781 L 254.640625 72.140625 L 251.691406 72.140625 L 251.691406 65.324219 L 244.988281 65.324219 L 244.988281 72.140625 L 242.03125 72.140625 L 242.03125 57.175781 L 244.988281 57.175781 L 244.988281 62.804688 Z M 251.691406 62.804688 " fill-opacity="1" fill-rule="nonzero"/><path fill="#bc9c22" d="M 162.507812 118.054688 L 159.394531 118.054688 L 158.269531 114.605469 L 152.535156 114.605469 L 151.410156 118.054688 L 148.371094 118.054688 L 153.539062 103.089844 L 157.335938 103.089844 Z M 155.257812 106.210938 L 153.335938 112.117188 L 157.449219 112.117188 L 155.515625 106.210938 Z M 155.257812 106.210938 " fill-opacity="1" fill-rule="nonzero"/><path fill="#bc9c22" d="M 215.359375 118.054688 L 212.25 118.054688 L 211.121094 114.605469 L 205.390625 114.605469 L 204.265625 118.054688 L 201.222656 118.054688 L 206.394531 103.089844 L 210.191406 103.089844 Z M 208.113281 106.210938 L 206.1875 112.117188 L 210.304688 112.117188 L 208.371094 106.210938 Z M 208.113281 106.210938 " fill-opacity="1" fill-rule="nonzero"/><g fill="#152039" fill-opacity="1"><g transform="translate(1.035633, 259.77681)"><g><path d="M 14.046875 -27.203125 C 15.992188 -27.203125 17.660156 -26.84375 19.046875 -26.125 C 20.429688 -25.414062 21.472656 -24.421875 22.171875 -23.140625 C 22.878906 -21.859375 23.234375 -20.363281 23.234375 -18.65625 C 23.234375 -16.957031 22.878906 -15.46875 22.171875 -14.1875 C 21.472656 -12.914062 20.429688 -11.921875 19.046875 -11.203125 C 17.660156 -10.492188 15.992188 -10.140625 14.046875 -10.140625 L 8.90625 -10.140625 L 8.90625 0 L 3.53125 0 L 3.53125 -27.203125 Z M 13.34375 -14.40625 C 16.332031 -14.40625 17.828125 -15.820312 17.828125 -18.65625 C 17.828125 -21.507812 16.332031 -22.9375 13.34375 -22.9375 L 8.90625 -22.9375 L 8.90625 -14.40625 Z M 13.34375 -14.40625 "/></g></g></g><g fill="#152039" fill-opacity="1"><g transform="translate(25.132336, 259.77681)"><g><path d="M 2.953125 0 L 2.953125 -20.53125 L 7.96875 -20.53125 L 7.96875 -17.46875 L 8.359375 -17.40625 C 8.847656 -18.539062 9.492188 -19.375 10.296875 -19.90625 C 11.109375 -20.4375 12.09375 -20.703125 13.25 -20.703125 C 14.414062 -20.703125 15.300781 -20.503906 15.90625 -20.109375 L 15.03125 -15.671875 L 14.640625 -15.59375 C 14.304688 -15.726562 13.984375 -15.828125 13.671875 -15.890625 C 13.367188 -15.953125 12.992188 -15.984375 12.546875 -15.984375 C 11.109375 -15.984375 10.007812 -15.476562 9.25 -14.46875 C 8.488281 -13.457031 8.109375 -11.835938 8.109375 -9.609375 L 8.109375 0 Z M 2.953125 0 "/></g></g></g><g fill="#152039" fill-opacity="1"><g transform="translate(40.465113, 259.77681)"><g><path d="M 11.921875 0.390625 C 9.910156 0.390625 8.144531 -0.0195312 6.625 -0.84375 C 5.113281 -1.664062 3.9375 -2.875 3.09375 -4.46875 C 2.257812 -6.0625 1.84375 -7.988281 1.84375 -10.25 C 1.84375 -12.507812 2.257812 -14.4375 3.09375 -16.03125 C 3.9375 -17.632812 5.113281 -18.847656 6.625 -19.671875 C 8.144531 -20.503906 9.910156 -20.921875 11.921875 -20.921875 C 13.929688 -20.921875 15.695312 -20.503906 17.21875 -19.671875 C 18.738281 -18.847656 19.921875 -17.632812 20.765625 -16.03125 C 21.609375 -14.4375 22.03125 -12.507812 22.03125 -10.25 C 22.03125 -7.988281 21.609375 -6.0625 20.765625 -4.46875 C 19.921875 -2.875 18.738281 -1.664062 17.21875 -0.84375 C 15.695312 -0.0195312 13.929688 0.390625 11.921875 0.390625 Z M 11.921875 -3.984375 C 15.109375 -3.984375 16.703125 -6.070312 16.703125 -10.25 C 16.703125 -12.425781 16.289062 -14.019531 15.46875 -15.03125 C 14.65625 -16.039062 13.472656 -16.546875 11.921875 -16.546875 C 8.734375 -16.546875 7.140625 -14.445312 7.140625 -10.25 C 7.140625 -6.070312 8.734375 -3.984375 11.921875 -3.984375 Z M 11.921875 -3.984375 "/></g></g></g><g fill="#152039" fill-opacity="1"><g transform="translate(63.557034, 259.77681)"><g><path d="M 3.59375 0 L 3.59375 -16.453125 L 0.6875 -16.453125 L 0.6875 -20.546875 L 3.59375 -20.546875 C 3.382812 -21.410156 3.28125 -22.222656 3.28125 -22.984375 C 3.28125 -24.285156 3.578125 -25.394531 4.171875 -26.3125 C 4.765625 -27.238281 5.617188 -27.941406 6.734375 -28.421875 C 7.847656 -28.910156 9.175781 -29.15625 10.71875 -29.15625 C 12.988281 -29.15625 14.679688 -28.765625 15.796875 -27.984375 L 14.59375 -24.1875 L 14.203125 -24.109375 C 13.429688 -24.660156 12.441406 -24.9375 11.234375 -24.9375 C 10.304688 -24.9375 9.609375 -24.707031 9.140625 -24.25 C 8.679688 -23.800781 8.453125 -23.1875 8.453125 -22.40625 C 8.453125 -22.070312 8.472656 -21.765625 8.515625 -21.484375 C 8.554688 -21.203125 8.632812 -20.890625 8.75 -20.546875 L 14.609375 -20.546875 L 14.609375 -16.453125 L 8.75 -16.453125 L 8.75 0 Z M 3.59375 0 "/></g></g></g><g fill="#152039" fill-opacity="1"><g transform="translate(77.605924, 259.77681)"><g><path d="M 5.53125 -22.984375 C 4.59375 -22.984375 3.832031 -23.265625 3.25 -23.828125 C 2.664062 -24.390625 2.375 -25.117188 2.375 -26.015625 C 2.375 -26.890625 2.664062 -27.609375 3.25 -28.171875 C 3.832031 -28.742188 4.59375 -29.03125 5.53125 -29.03125 C 6.144531 -29.03125 6.691406 -28.898438 7.171875 -28.640625 C 7.660156 -28.378906 8.035156 -28.019531 8.296875 -27.5625 C 8.566406 -27.113281 8.703125 -26.597656 8.703125 -26.015625 C 8.703125 -25.429688 8.566406 -24.910156 8.296875 -24.453125 C 8.035156 -23.992188 7.660156 -23.632812 7.171875 -23.375 C 6.691406 -23.113281 6.144531 -22.984375 5.53125 -22.984375 Z M 2.953125 0 L 2.953125 -20.53125 L 8.109375 -20.53125 L 8.109375 0 Z M 2.953125 0 "/></g></g></g><g fill="#152039" fill-opacity="1"><g transform="translate(87.896188, 259.77681)"><g><path d="M 14.15625 -4.890625 L 15.5 -1.078125 C 14.9375 -0.617188 14.234375 -0.257812 13.390625 0 C 12.546875 0.257812 11.59375 0.390625 10.53125 0.390625 C 8.3125 0.390625 6.625 -0.210938 5.46875 -1.421875 C 4.3125 -2.628906 3.734375 -4.390625 3.734375 -6.703125 L 3.734375 -16.453125 L 0.609375 -16.453125 L 0.609375 -20.546875 L 3.734375 -20.546875 L 3.734375 -24.546875 L 8.890625 -25.375 L 8.890625 -20.546875 L 14.71875 -20.546875 L 14.71875 -16.453125 L 8.890625 -16.453125 L 8.890625 -7.078125 C 8.890625 -6.054688 9.097656 -5.3125 9.515625 -4.84375 C 9.941406 -4.382812 10.5625 -4.15625 11.375 -4.15625 C 12.289062 -4.15625 13.085938 -4.398438 13.765625 -4.890625 Z M 14.15625 -4.890625 "/></g></g></g><g fill="#bc9c22" fill-opacity="1"><g transform="translate(111.623115, 259.77681)"><g><path d="M 8.46875 0 L 3.53125 0 L 3.53125 -27.203125 L 10.5625 -27.203125 L 17.453125 -7.203125 L 17.84375 -7.203125 L 24.6875 -27.203125 L 31.5625 -27.203125 L 31.5625 0 L 26.453125 0 L 26.453125 -17.96875 L 26 -18.046875 L 19.703125 0 L 15.21875 0 L 8.9375 -18.046875 L 8.46875 -17.96875 Z M 8.46875 0 "/></g></g></g><g fill="#bc9c22" fill-opacity="1"><g transform="translate(145.972309, 259.77681)"><g><path d="M 8 0.390625 C 6.6875 0.390625 5.546875 0.148438 4.578125 -0.328125 C 3.609375 -0.816406 2.863281 -1.53125 2.34375 -2.46875 C 1.820312 -3.40625 1.5625 -4.53125 1.5625 -5.84375 C 1.5625 -7.0625 1.820312 -8.082031 2.34375 -8.90625 C 2.863281 -9.726562 3.671875 -10.398438 4.765625 -10.921875 C 5.859375 -11.453125 7.285156 -11.863281 9.046875 -12.15625 C 10.273438 -12.351562 11.207031 -12.566406 11.84375 -12.796875 C 12.476562 -13.035156 12.90625 -13.300781 13.125 -13.59375 C 13.351562 -13.894531 13.46875 -14.273438 13.46875 -14.734375 C 13.46875 -15.390625 13.238281 -15.890625 12.78125 -16.234375 C 12.320312 -16.585938 11.5625 -16.765625 10.5 -16.765625 C 9.351562 -16.765625 8.265625 -16.507812 7.234375 -16 C 6.203125 -15.488281 5.3125 -14.820312 4.5625 -14 L 4.1875 -14 L 2.03125 -17.25 C 3.070312 -18.40625 4.34375 -19.304688 5.84375 -19.953125 C 7.34375 -20.597656 8.976562 -20.921875 10.75 -20.921875 C 13.46875 -20.921875 15.4375 -20.34375 16.65625 -19.1875 C 17.875 -18.03125 18.484375 -16.390625 18.484375 -14.265625 L 18.484375 -5.359375 C 18.484375 -4.441406 18.882812 -3.984375 19.6875 -3.984375 C 20 -3.984375 20.300781 -4.039062 20.59375 -4.15625 L 20.859375 -4.078125 L 21.234375 -0.484375 C 20.941406 -0.296875 20.539062 -0.140625 20.03125 -0.015625 C 19.53125 0.0976562 18.972656 0.15625 18.359375 0.15625 C 17.140625 0.15625 16.179688 -0.078125 15.484375 -0.546875 C 14.796875 -1.023438 14.304688 -1.765625 14.015625 -2.765625 L 13.625 -2.8125 C 12.613281 -0.675781 10.738281 0.390625 8 0.390625 Z M 9.640625 -3.46875 C 10.828125 -3.46875 11.773438 -3.863281 12.484375 -4.65625 C 13.203125 -5.457031 13.5625 -6.570312 13.5625 -8 L 13.5625 -10.078125 L 13.21875 -10.15625 C 12.90625 -9.90625 12.492188 -9.695312 11.984375 -9.53125 C 11.484375 -9.363281 10.765625 -9.203125 9.828125 -9.046875 C 8.710938 -8.859375 7.910156 -8.535156 7.421875 -8.078125 C 6.929688 -7.628906 6.6875 -6.988281 6.6875 -6.15625 C 6.6875 -5.28125 6.945312 -4.613281 7.46875 -4.15625 C 7.988281 -3.695312 8.710938 -3.46875 9.640625 -3.46875 Z M 9.640625 -3.46875 "/></g></g></g><g fill="#bc9c22" fill-opacity="1"><g transform="translate(166.84999, 259.77681)"><g><path d="M 2.953125 0 L 2.953125 -20.53125 L 7.90625 -20.53125 L 7.90625 -17.515625 L 8.296875 -17.421875 C 9.578125 -19.753906 11.648438 -20.921875 14.515625 -20.921875 C 16.878906 -20.921875 18.617188 -20.273438 19.734375 -18.984375 C 20.847656 -17.691406 21.40625 -15.8125 21.40625 -13.34375 L 21.40625 0 L 16.25 0 L 16.25 -12.703125 C 16.25 -14.066406 15.972656 -15.050781 15.421875 -15.65625 C 14.878906 -16.257812 14.003906 -16.5625 12.796875 -16.5625 C 11.328125 -16.5625 10.175781 -16.082031 9.34375 -15.125 C 8.519531 -14.175781 8.109375 -12.675781 8.109375 -10.625 L 8.109375 0 Z M 2.953125 0 "/></g></g></g><g fill="#bc9c22" fill-opacity="1"><g transform="translate(190.127983, 259.77681)"><g><path d="M 8 0.390625 C 6.6875 0.390625 5.546875 0.148438 4.578125 -0.328125 C 3.609375 -0.816406 2.863281 -1.53125 2.34375 -2.46875 C 1.820312 -3.40625 1.5625 -4.53125 1.5625 -5.84375 C 1.5625 -7.0625 1.820312 -8.082031 2.34375 -8.90625 C 2.863281 -9.726562 3.671875 -10.398438 4.765625 -10.921875 C 5.859375 -11.453125 7.285156 -11.863281 9.046875 -12.15625 C 10.273438 -12.351562 11.207031 -12.566406 11.84375 -12.796875 C 12.476562 -13.035156 12.90625 -13.300781 13.125 -13.59375 C 13.351562 -13.894531 13.46875 -14.273438 13.46875 -14.734375 C 13.46875 -15.390625 13.238281 -15.890625 12.78125 -16.234375 C 12.320312 -16.585938 11.5625 -16.765625 10.5 -16.765625 C 9.351562 -16.765625 8.265625 -16.507812 7.234375 -16 C 6.203125 -15.488281 5.3125 -14.820312 4.5625 -14 L 4.1875 -14 L 2.03125 -17.25 C 3.070312 -18.40625 4.34375 -19.304688 5.84375 -19.953125 C 7.34375 -20.597656 8.976562 -20.921875 10.75 -20.921875 C 13.46875 -20.921875 15.4375 -20.34375 16.65625 -19.1875 C 17.875 -18.03125 18.484375 -16.390625 18.484375 -14.265625 L 18.484375 -5.359375 C 18.484375 -4.441406 18.882812 -3.984375 19.6875 -3.984375 C 20 -3.984375 20.300781 -4.039062 20.59375 -4.15625 L 20.859375 -4.078125 L 21.234375 -0.484375 C 20.941406 -0.296875 20.539062 -0.140625 20.03125 -0.015625 C 19.53125 0.0976562 18.972656 0.15625 18.359375 0.15625 C 17.140625 0.15625 16.179688 -0.078125 15.484375 -0.546875 C 14.796875 -1.023438 14.304688 -1.765625 14.015625 -2.765625 L 13.625 -2.8125 C 12.613281 -0.675781 10.738281 0.390625 8 0.390625 Z M 9.640625 -3.46875 C 10.828125 -3.46875 11.773438 -3.863281 12.484375 -4.65625 C 13.203125 -5.457031 13.5625 -6.570312 13.5625 -8 L 13.5625 -10.078125 L 13.21875 -10.15625 C 12.90625 -9.90625 12.492188 -9.695312 11.984375 -9.53125 C 11.484375 -9.363281 10.765625 -9.203125 9.828125 -9.046875 C 8.710938 -8.859375 7.910156 -8.535156 7.421875 -8.078125 C 6.929688 -7.628906 6.6875 -6.988281 6.6875 -6.15625 C 6.6875 -5.28125 6.945312 -4.613281 7.46875 -4.15625 C 7.988281 -3.695312 8.710938 -3.46875 9.640625 -3.46875 Z M 9.640625 -3.46875 "/></g></g></g><g fill="#bc9c22" fill-opacity="1"><g transform="translate(211.005664, 259.77681)"><g><path d="M 10.640625 8.703125 C 7.253906 8.703125 4.753906 8.207031 3.140625 7.21875 C 1.523438 6.226562 0.71875 4.847656 0.71875 3.078125 C 0.71875 1.992188 1.0625 1.109375 1.75 0.421875 C 2.445312 -0.265625 3.4375 -0.726562 4.71875 -0.96875 L 4.71875 -1.359375 C 4.03125 -1.773438 3.53125 -2.238281 3.21875 -2.75 C 2.914062 -3.269531 2.765625 -3.875 2.765625 -4.5625 C 2.765625 -6.207031 3.835938 -7.316406 5.984375 -7.890625 L 5.984375 -8.28125 C 4.878906 -8.914062 4.046875 -9.703125 3.484375 -10.640625 C 2.929688 -11.578125 2.65625 -12.707031 2.65625 -14.03125 C 2.65625 -15.394531 2.96875 -16.59375 3.59375 -17.625 C 4.226562 -18.664062 5.148438 -19.472656 6.359375 -20.046875 C 7.566406 -20.628906 9.015625 -20.921875 10.703125 -20.921875 C 12.410156 -20.921875 13.773438 -20.617188 14.796875 -20.015625 C 15.429688 -20.941406 15.796875 -22.003906 15.890625 -23.203125 L 16.28125 -23.453125 L 19.984375 -22.53125 C 19.867188 -21.550781 19.582031 -20.726562 19.125 -20.0625 C 18.664062 -19.40625 17.953125 -18.816406 16.984375 -18.296875 L 16.984375 -17.875 C 18.140625 -16.863281 18.71875 -15.445312 18.71875 -13.625 C 18.71875 -12.351562 18.398438 -11.210938 17.765625 -10.203125 C 17.140625 -9.203125 16.21875 -8.410156 15 -7.828125 C 13.789062 -7.242188 12.359375 -6.953125 10.703125 -6.953125 L 9.921875 -6.984375 C 9.421875 -7.003906 9.070312 -7.015625 8.875 -7.015625 C 8.40625 -7.015625 8.035156 -6.882812 7.765625 -6.625 C 7.503906 -6.375 7.375 -6.050781 7.375 -5.65625 C 7.375 -5.21875 7.546875 -4.878906 7.890625 -4.640625 C 8.234375 -4.398438 8.742188 -4.269531 9.421875 -4.25 L 14.015625 -4.078125 C 18.554688 -3.941406 20.828125 -1.988281 20.828125 1.78125 C 20.828125 3.113281 20.488281 4.296875 19.8125 5.328125 C 19.132812 6.367188 18.035156 7.191406 16.515625 7.796875 C 15.003906 8.398438 13.046875 8.703125 10.640625 8.703125 Z M 10.703125 -10.5625 C 11.691406 -10.5625 12.460938 -10.851562 13.015625 -11.4375 C 13.578125 -12.019531 13.859375 -12.851562 13.859375 -13.9375 C 13.859375 -15.019531 13.578125 -15.847656 13.015625 -16.421875 C 12.460938 -16.992188 11.691406 -17.28125 10.703125 -17.28125 C 9.691406 -17.28125 8.914062 -16.992188 8.375 -16.421875 C 7.832031 -15.847656 7.5625 -15.019531 7.5625 -13.9375 C 7.5625 -12.84375 7.832031 -12.003906 8.375 -11.421875 C 8.914062 -10.847656 9.691406 -10.5625 10.703125 -10.5625 Z M 10.640625 4.96875 C 12.398438 4.96875 13.679688 4.71875 14.484375 4.21875 C 15.285156 3.726562 15.6875 3.082031 15.6875 2.28125 C 15.6875 1.644531 15.476562 1.171875 15.0625 0.859375 C 14.65625 0.554688 14.007812 0.394531 13.125 0.375 L 9.0625 0.1875 C 8.925781 0.1875 8.796875 0.179688 8.671875 0.171875 C 8.554688 0.160156 8.445312 0.15625 8.34375 0.15625 C 7.46875 0.15625 6.800781 0.335938 6.34375 0.703125 C 5.894531 1.078125 5.671875 1.59375 5.671875 2.25 C 5.671875 3.113281 6.085938 3.78125 6.921875 4.25 C 7.753906 4.726562 8.992188 4.96875 10.640625 4.96875 Z M 10.640625 4.96875 "/></g></g></g><g fill="#bc9c22" fill-opacity="1"><g transform="translate(231.585632, 259.77681)"><g><path d="M 20.28125 -9.09375 L 7.09375 -9.09375 C 7.238281 -7.3125 7.742188 -6.015625 8.609375 -5.203125 C 9.484375 -4.390625 10.671875 -3.984375 12.171875 -3.984375 C 13.347656 -3.984375 14.300781 -4.203125 15.03125 -4.640625 C 15.769531 -5.078125 16.359375 -5.742188 16.796875 -6.640625 L 17.1875 -6.640625 L 20.625 -4.453125 C 19.945312 -3.003906 18.929688 -1.832031 17.578125 -0.9375 C 16.234375 -0.0507812 14.429688 0.390625 12.171875 0.390625 C 10.046875 0.390625 8.210938 -0.0078125 6.671875 -0.8125 C 5.128906 -1.625 3.9375 -2.828125 3.09375 -4.421875 C 2.257812 -6.015625 1.84375 -7.957031 1.84375 -10.25 C 1.84375 -12.582031 2.28125 -14.546875 3.15625 -16.140625 C 4.039062 -17.742188 5.234375 -18.941406 6.734375 -19.734375 C 8.234375 -20.523438 9.921875 -20.921875 11.796875 -20.921875 C 14.703125 -20.921875 16.925781 -20.148438 18.46875 -18.609375 C 20.007812 -17.066406 20.78125 -14.804688 20.78125 -11.828125 C 20.78125 -10.753906 20.742188 -9.921875 20.671875 -9.328125 Z M 15.859375 -12.4375 C 15.804688 -14 15.441406 -15.132812 14.765625 -15.84375 C 14.085938 -16.5625 13.097656 -16.921875 11.796875 -16.921875 C 9.191406 -16.921875 7.660156 -15.425781 7.203125 -12.4375 Z M 15.859375 -12.4375 "/></g></g></g><g fill="#bc9c22" fill-opacity="1"><g transform="translate(253.133168, 259.77681)"><g><path d="M 2.953125 0 L 2.953125 -20.53125 L 7.90625 -20.53125 L 7.90625 -17.765625 L 8.296875 -17.703125 C 8.960938 -18.804688 9.742188 -19.617188 10.640625 -20.140625 C 11.546875 -20.660156 12.703125 -20.921875 14.109375 -20.921875 C 15.660156 -20.921875 16.90625 -20.613281 17.84375 -20 C 18.789062 -19.382812 19.476562 -18.488281 19.90625 -17.3125 L 20.296875 -17.3125 C 20.929688 -18.53125 21.75 -19.4375 22.75 -20.03125 C 23.75 -20.625 24.992188 -20.921875 26.484375 -20.921875 C 30.734375 -20.921875 32.859375 -18.550781 32.859375 -13.8125 L 32.859375 0 L 27.703125 0 L 27.703125 -13.15625 C 27.703125 -14.351562 27.46875 -15.21875 27 -15.75 C 26.53125 -16.289062 25.773438 -16.5625 24.734375 -16.5625 C 21.898438 -16.5625 20.484375 -14.671875 20.484375 -10.890625 L 20.484375 0 L 15.328125 0 L 15.328125 -13.15625 C 15.328125 -14.351562 15.085938 -15.21875 14.609375 -15.75 C 14.140625 -16.289062 13.382812 -16.5625 12.34375 -16.5625 C 11.007812 -16.5625 9.96875 -16.117188 9.21875 -15.234375 C 8.476562 -14.347656 8.109375 -12.9375 8.109375 -11 L 8.109375 0 Z M 2.953125 0 "/></g></g></g><g fill="#bc9c22" fill-opacity="1"><g transform="translate(287.87311, 259.77681)"><g><path d="M 20.28125 -9.09375 L 7.09375 -9.09375 C 7.238281 -7.3125 7.742188 -6.015625 8.609375 -5.203125 C 9.484375 -4.390625 10.671875 -3.984375 12.171875 -3.984375 C 13.347656 -3.984375 14.300781 -4.203125 15.03125 -4.640625 C 15.769531 -5.078125 16.359375 -5.742188 16.796875 -6.640625 L 17.1875 -6.640625 L 20.625 -4.453125 C 19.945312 -3.003906 18.929688 -1.832031 17.578125 -0.9375 C 16.234375 -0.0507812 14.429688 0.390625 12.171875 0.390625 C 10.046875 0.390625 8.210938 -0.0078125 6.671875 -0.8125 C 5.128906 -1.625 3.9375 -2.828125 3.09375 -4.421875 C 2.257812 -6.015625 1.84375 -7.957031 1.84375 -10.25 C 1.84375 -12.582031 2.28125 -14.546875 3.15625 -16.140625 C 4.039062 -17.742188 5.234375 -18.941406 6.734375 -19.734375 C 8.234375 -20.523438 9.921875 -20.921875 11.796875 -20.921875 C 14.703125 -20.921875 16.925781 -20.148438 18.46875 -18.609375 C 20.007812 -17.066406 20.78125 -14.804688 20.78125 -11.828125 C 20.78125 -10.753906 20.742188 -9.921875 20.671875 -9.328125 Z M 15.859375 -12.4375 C 15.804688 -14 15.441406 -15.132812 14.765625 -15.84375 C 14.085938 -16.5625 13.097656 -16.921875 11.796875 -16.921875 C 9.191406 -16.921875 7.660156 -15.425781 7.203125 -12.4375 Z M 15.859375 -12.4375 "/></g></g></g><g fill="#bc9c22" fill-opacity="1"><g transform="translate(309.420645, 259.77681)"><g><path d="M 2.953125 0 L 2.953125 -20.53125 L 7.90625 -20.53125 L 7.90625 -17.515625 L 8.296875 -17.421875 C 9.578125 -19.753906 11.648438 -20.921875 14.515625 -20.921875 C 16.878906 -20.921875 18.617188 -20.273438 19.734375 -18.984375 C 20.847656 -17.691406 21.40625 -15.8125 21.40625 -13.34375 L 21.40625 0 L 16.25 0 L 16.25 -12.703125 C 16.25 -14.066406 15.972656 -15.050781 15.421875 -15.65625 C 14.878906 -16.257812 14.003906 -16.5625 12.796875 -16.5625 C 11.328125 -16.5625 10.175781 -16.082031 9.34375 -15.125 C 8.519531 -14.175781 8.109375 -12.675781 8.109375 -10.625 L 8.109375 0 Z M 2.953125 0 "/></g></g></g><g fill="#bc9c22" fill-opacity="1"><g transform="translate(332.698638, 259.77681)"><g><path d="M 14.15625 -4.890625 L 15.5 -1.078125 C 14.9375 -0.617188 14.234375 -0.257812 13.390625 0 C 12.546875 0.257812 11.59375 0.390625 10.53125 0.390625 C 8.3125 0.390625 6.625 -0.210938 5.46875 -1.421875 C 4.3125 -2.628906 3.734375 -4.390625 3.734375 -6.703125 L 3.734375 -16.453125 L 0.609375 -16.453125 L 0.609375 -20.546875 L 3.734375 -20.546875 L 3.734375 -24.546875 L 8.890625 -25.375 L 8.890625 -20.546875 L 14.71875 -20.546875 L 14.71875 -16.453125 L 8.890625 -16.453125 L 8.890625 -7.078125 C 8.890625 -6.054688 9.097656 -5.3125 9.515625 -4.84375 C 9.941406 -4.382812 10.5625 -4.15625 11.375 -4.15625 C 12.289062 -4.15625 13.085938 -4.398438 13.765625 -4.890625 Z M 14.15625 -4.890625 "/></g></g></g><g fill="#152039" fill-opacity="1"><g transform="translate(31.744422, 282.194359)"><g><path d="M 3.34375 -10.203125 L 3.34375 -1.6875 L 7.9375 -1.6875 L 7.9375 0 L 1.328125 0 L 1.328125 -10.203125 Z M 3.34375 -10.203125 "/></g></g></g><g fill="#152039" fill-opacity="1"><g transform="translate(51.443793, 282.194359)"><g><path d="M 7.609375 -3.40625 L 2.65625 -3.40625 C 2.71875 -2.738281 2.910156 -2.253906 3.234375 -1.953125 C 3.554688 -1.648438 4 -1.5 4.5625 -1.5 C 5.007812 -1.5 5.367188 -1.578125 5.640625 -1.734375 C 5.910156 -1.898438 6.128906 -2.148438 6.296875 -2.484375 L 6.453125 -2.484375 L 7.734375 -1.671875 C 7.484375 -1.128906 7.101562 -0.691406 6.59375 -0.359375 C 6.09375 -0.0234375 5.414062 0.140625 4.5625 0.140625 C 3.769531 0.140625 3.082031 -0.0078125 2.5 -0.3125 C 1.925781 -0.613281 1.476562 -1.0625 1.15625 -1.65625 C 0.84375 -2.257812 0.6875 -2.988281 0.6875 -3.84375 C 0.6875 -4.71875 0.851562 -5.453125 1.1875 -6.046875 C 1.519531 -6.648438 1.96875 -7.097656 2.53125 -7.390625 C 3.09375 -7.691406 3.722656 -7.84375 4.421875 -7.84375 C 5.515625 -7.84375 6.347656 -7.550781 6.921875 -6.96875 C 7.503906 -6.394531 7.796875 -5.550781 7.796875 -4.4375 C 7.796875 -4.03125 7.78125 -3.71875 7.75 -3.5 Z M 5.953125 -4.65625 C 5.929688 -5.25 5.789062 -5.675781 5.53125 -5.9375 C 5.28125 -6.207031 4.910156 -6.34375 4.421875 -6.34375 C 3.441406 -6.34375 2.867188 -5.78125 2.703125 -4.65625 Z M 5.953125 -4.65625 "/></g></g></g><g fill="#152039" fill-opacity="1"><g transform="translate(71.247854, 282.194359)"><g><path d="M 3 0.140625 C 2.507812 0.140625 2.082031 0.0507812 1.71875 -0.125 C 1.351562 -0.300781 1.070312 -0.566406 0.875 -0.921875 C 0.6875 -1.273438 0.59375 -1.695312 0.59375 -2.1875 C 0.59375 -2.644531 0.6875 -3.023438 0.875 -3.328125 C 1.070312 -3.640625 1.375 -3.894531 1.78125 -4.09375 C 2.195312 -4.289062 2.734375 -4.445312 3.390625 -4.5625 C 3.847656 -4.632812 4.195312 -4.710938 4.4375 -4.796875 C 4.675781 -4.890625 4.835938 -4.988281 4.921875 -5.09375 C 5.003906 -5.207031 5.046875 -5.351562 5.046875 -5.53125 C 5.046875 -5.78125 4.957031 -5.96875 4.78125 -6.09375 C 4.613281 -6.226562 4.332031 -6.296875 3.9375 -6.296875 C 3.507812 -6.296875 3.101562 -6.195312 2.71875 -6 C 2.332031 -5.8125 1.992188 -5.5625 1.703125 -5.25 L 1.578125 -5.25 L 0.765625 -6.46875 C 1.148438 -6.90625 1.625 -7.242188 2.1875 -7.484375 C 2.75 -7.722656 3.363281 -7.84375 4.03125 -7.84375 C 5.050781 -7.84375 5.789062 -7.625 6.25 -7.1875 C 6.707031 -6.757812 6.9375 -6.148438 6.9375 -5.359375 L 6.9375 -2.015625 C 6.9375 -1.671875 7.085938 -1.5 7.390625 -1.5 C 7.503906 -1.5 7.617188 -1.519531 7.734375 -1.5625 L 7.828125 -1.53125 L 7.96875 -0.1875 C 7.851562 -0.113281 7.703125 -0.0507812 7.515625 0 C 7.328125 0.0390625 7.117188 0.0625 6.890625 0.0625 C 6.429688 0.0625 6.070312 -0.0234375 5.8125 -0.203125 C 5.550781 -0.378906 5.363281 -0.660156 5.25 -1.046875 L 5.109375 -1.046875 C 4.734375 -0.253906 4.03125 0.140625 3 0.140625 Z M 3.609375 -1.296875 C 4.054688 -1.296875 4.414062 -1.445312 4.6875 -1.75 C 4.957031 -2.050781 5.09375 -2.46875 5.09375 -3 L 5.09375 -3.78125 L 4.953125 -3.8125 C 4.835938 -3.71875 4.6875 -3.640625 4.5 -3.578125 C 4.3125 -3.515625 4.039062 -3.453125 3.6875 -3.390625 C 3.269531 -3.316406 2.96875 -3.195312 2.78125 -3.03125 C 2.59375 -2.863281 2.5 -2.625 2.5 -2.3125 C 2.5 -1.976562 2.597656 -1.722656 2.796875 -1.546875 C 2.992188 -1.378906 3.265625 -1.296875 3.609375 -1.296875 Z M 3.609375 -1.296875 "/></g></g></g><g fill="#152039" fill-opacity="1"><g transform="translate(90.800658, 282.194359)"><g><path d="M 3.796875 0.140625 C 3.191406 0.140625 2.65625 -0.00390625 2.1875 -0.296875 C 1.71875 -0.585938 1.347656 -1.03125 1.078125 -1.625 C 0.816406 -2.226562 0.6875 -2.96875 0.6875 -3.84375 C 0.6875 -4.726562 0.820312 -5.46875 1.09375 -6.0625 C 1.375 -6.65625 1.753906 -7.097656 2.234375 -7.390625 C 2.710938 -7.691406 3.269531 -7.84375 3.90625 -7.84375 C 4.382812 -7.84375 4.796875 -7.757812 5.140625 -7.59375 C 5.492188 -7.425781 5.789062 -7.171875 6.03125 -6.828125 L 6.1875 -6.859375 L 6.1875 -10.796875 L 8.125 -10.796875 L 8.125 0 L 6.1875 0 L 6.1875 -1 L 6.03125 -1.03125 C 5.820312 -0.664062 5.53125 -0.378906 5.15625 -0.171875 C 4.78125 0.0351562 4.328125 0.140625 3.796875 0.140625 Z M 4.4375 -1.5 C 4.976562 -1.5 5.40625 -1.691406 5.71875 -2.078125 C 6.039062 -2.460938 6.203125 -3.050781 6.203125 -3.84375 C 6.203125 -4.632812 6.039062 -5.222656 5.71875 -5.609375 C 5.40625 -6.003906 4.976562 -6.203125 4.4375 -6.203125 C 3.863281 -6.203125 3.425781 -6.007812 3.125 -5.625 C 2.832031 -5.25 2.6875 -4.65625 2.6875 -3.84375 C 2.6875 -3.03125 2.832031 -2.4375 3.125 -2.0625 C 3.425781 -1.6875 3.863281 -1.5 4.4375 -1.5 Z M 4.4375 -1.5 "/></g></g></g><g fill="#152039" fill-opacity="1"><g transform="translate(111.463179, 282.194359)"><g/></g></g><g fill="#152039" fill-opacity="1"><g transform="translate(126.270024, 282.194359)"><g><path d="M 1.703125 3.265625 C 1.367188 3.265625 1.066406 3.238281 0.796875 3.1875 C 0.535156 3.132812 0.320312 3.066406 0.15625 2.984375 L 0.453125 1.421875 L 0.59375 1.375 C 0.707031 1.4375 0.847656 1.484375 1.015625 1.515625 C 1.191406 1.554688 1.367188 1.578125 1.546875 1.578125 C 1.859375 1.578125 2.117188 1.535156 2.328125 1.453125 C 2.535156 1.378906 2.710938 1.25 2.859375 1.0625 C 3.003906 0.875 3.128906 0.609375 3.234375 0.265625 L 0.171875 -7.703125 L 2.1875 -7.703125 L 4.109375 -2.34375 L 4.265625 -2.34375 L 6.140625 -7.703125 L 8.109375 -7.703125 L 5.015625 0.484375 C 4.765625 1.140625 4.488281 1.671875 4.1875 2.078125 C 3.894531 2.484375 3.546875 2.78125 3.140625 2.96875 C 2.742188 3.164062 2.265625 3.265625 1.703125 3.265625 Z M 1.703125 3.265625 "/></g></g></g><g fill="#152039" fill-opacity="1"><g transform="translate(145.969394, 282.194359)"><g><path d="M 4.46875 0.140625 C 3.71875 0.140625 3.054688 -0.0078125 2.484375 -0.3125 C 1.921875 -0.625 1.476562 -1.078125 1.15625 -1.671875 C 0.84375 -2.273438 0.6875 -3 0.6875 -3.84375 C 0.6875 -4.6875 0.84375 -5.410156 1.15625 -6.015625 C 1.476562 -6.617188 1.921875 -7.070312 2.484375 -7.375 C 3.054688 -7.6875 3.71875 -7.84375 4.46875 -7.84375 C 5.226562 -7.84375 5.890625 -7.6875 6.453125 -7.375 C 7.023438 -7.070312 7.46875 -6.617188 7.78125 -6.015625 C 8.101562 -5.410156 8.265625 -4.6875 8.265625 -3.84375 C 8.265625 -3 8.101562 -2.273438 7.78125 -1.671875 C 7.46875 -1.078125 7.023438 -0.625 6.453125 -0.3125 C 5.890625 -0.0078125 5.226562 0.140625 4.46875 0.140625 Z M 4.46875 -1.5 C 5.664062 -1.5 6.265625 -2.28125 6.265625 -3.84375 C 6.265625 -4.65625 6.109375 -5.25 5.796875 -5.625 C 5.492188 -6.007812 5.050781 -6.203125 4.46875 -6.203125 C 3.28125 -6.203125 2.6875 -5.414062 2.6875 -3.84375 C 2.6875 -2.28125 3.28125 -1.5 4.46875 -1.5 Z M 4.46875 -1.5 "/></g></g></g><g fill="#152039" fill-opacity="1"><g transform="translate(166.352741, 282.194359)"><g><path d="M 3.53125 0.140625 C 2.664062 0.140625 2.023438 -0.09375 1.609375 -0.5625 C 1.191406 -1.03125 0.984375 -1.707031 0.984375 -2.59375 L 0.984375 -7.703125 L 2.921875 -7.703125 L 2.921875 -2.84375 C 2.921875 -2.375 3.019531 -2.03125 3.21875 -1.8125 C 3.425781 -1.59375 3.742188 -1.484375 4.171875 -1.484375 C 4.703125 -1.484375 5.113281 -1.660156 5.40625 -2.015625 C 5.707031 -2.367188 5.859375 -2.921875 5.859375 -3.671875 L 5.859375 -7.703125 L 7.796875 -7.703125 L 7.796875 0 L 5.9375 0 L 5.9375 -1.125 L 5.796875 -1.171875 C 5.546875 -0.722656 5.242188 -0.390625 4.890625 -0.171875 C 4.535156 0.0351562 4.082031 0.140625 3.53125 0.140625 Z M 3.53125 0.140625 "/></g></g></g><g fill="#152039" fill-opacity="1"><g transform="translate(186.694211, 282.194359)"><g><path d="M 1.109375 0 L 1.109375 -7.703125 L 2.984375 -7.703125 L 2.984375 -6.5625 L 3.140625 -6.53125 C 3.316406 -6.957031 3.554688 -7.269531 3.859375 -7.46875 C 4.171875 -7.664062 4.539062 -7.765625 4.96875 -7.765625 C 5.40625 -7.765625 5.738281 -7.691406 5.96875 -7.546875 L 5.640625 -5.875 L 5.5 -5.84375 C 5.375 -5.894531 5.25 -5.929688 5.125 -5.953125 C 5.007812 -5.984375 4.867188 -6 4.703125 -6 C 4.160156 -6 3.75 -5.804688 3.46875 -5.421875 C 3.1875 -5.046875 3.046875 -4.441406 3.046875 -3.609375 L 3.046875 0 Z M 1.109375 0 "/></g></g></g><g fill="#152039" fill-opacity="1"><g transform="translate(204.167169, 282.194359)"><g/></g></g><g fill="#152039" fill-opacity="1"><g transform="translate(218.974013, 282.194359)"><g><path d="M 5.265625 -10.203125 C 5.992188 -10.203125 6.617188 -10.066406 7.140625 -9.796875 C 7.660156 -9.535156 8.050781 -9.160156 8.3125 -8.671875 C 8.582031 -8.191406 8.71875 -7.632812 8.71875 -7 C 8.71875 -6.363281 8.582031 -5.804688 8.3125 -5.328125 C 8.050781 -4.847656 7.660156 -4.472656 7.140625 -4.203125 C 6.617188 -3.929688 5.992188 -3.796875 5.265625 -3.796875 L 3.34375 -3.796875 L 3.34375 0 L 1.328125 0 L 1.328125 -10.203125 Z M 5 -5.40625 C 6.125 -5.40625 6.6875 -5.9375 6.6875 -7 C 6.6875 -8.070312 6.125 -8.609375 5 -8.609375 L 3.34375 -8.609375 L 3.34375 -5.40625 Z M 5 -5.40625 "/></g></g></g><g fill="#152039" fill-opacity="1"><g transform="translate(239.734245, 282.194359)"><g><path d="M 1.109375 0 L 1.109375 -7.703125 L 2.984375 -7.703125 L 2.984375 -6.5625 L 3.140625 -6.53125 C 3.316406 -6.957031 3.554688 -7.269531 3.859375 -7.46875 C 4.171875 -7.664062 4.539062 -7.765625 4.96875 -7.765625 C 5.40625 -7.765625 5.738281 -7.691406 5.96875 -7.546875 L 5.640625 -5.875 L 5.5 -5.84375 C 5.375 -5.894531 5.25 -5.929688 5.125 -5.953125 C 5.007812 -5.984375 4.867188 -6 4.703125 -6 C 4.160156 -6 3.75 -5.804688 3.46875 -5.421875 C 3.1875 -5.046875 3.046875 -4.441406 3.046875 -3.609375 L 3.046875 0 Z M 1.109375 0 "/></g></g></g><g fill="#152039" fill-opacity="1"><g transform="translate(257.207203, 282.194359)"><g><path d="M 4.46875 0.140625 C 3.71875 0.140625 3.054688 -0.0078125 2.484375 -0.3125 C 1.921875 -0.625 1.476562 -1.078125 1.15625 -1.671875 C 0.84375 -2.273438 0.6875 -3 0.6875 -3.84375 C 0.6875 -4.6875 0.84375 -5.410156 1.15625 -6.015625 C 1.476562 -6.617188 1.921875 -7.070312 2.484375 -7.375 C 3.054688 -7.6875 3.71875 -7.84375 4.46875 -7.84375 C 5.226562 -7.84375 5.890625 -7.6875 6.453125 -7.375 C 7.023438 -7.070312 7.46875 -6.617188 7.78125 -6.015625 C 8.101562 -5.410156 8.265625 -4.6875 8.265625 -3.84375 C 8.265625 -3 8.101562 -2.273438 7.78125 -1.671875 C 7.46875 -1.078125 7.023438 -0.625 6.453125 -0.3125 C 5.890625 -0.0078125 5.226562 0.140625 4.46875 0.140625 Z M 4.46875 -1.5 C 5.664062 -1.5 6.265625 -2.28125 6.265625 -3.84375 C 6.265625 -4.65625 6.109375 -5.25 5.796875 -5.625 C 5.492188 -6.007812 5.050781 -6.203125 4.46875 -6.203125 C 3.28125 -6.203125 2.6875 -5.414062 2.6875 -3.84375 C 2.6875 -2.28125 3.28125 -1.5 4.46875 -1.5 Z M 4.46875 -1.5 "/></g></g></g><g fill="#152039" fill-opacity="1"><g transform="translate(277.590563, 282.194359)"><g><path d="M 1.34375 0 L 1.34375 -6.171875 L 0.265625 -6.171875 L 0.265625 -7.703125 L 1.34375 -7.703125 C 1.269531 -8.035156 1.234375 -8.34375 1.234375 -8.625 C 1.234375 -9.113281 1.34375 -9.53125 1.5625 -9.875 C 1.789062 -10.21875 2.113281 -10.476562 2.53125 -10.65625 C 2.945312 -10.84375 3.441406 -10.9375 4.015625 -10.9375 C 4.867188 -10.9375 5.503906 -10.789062 5.921875 -10.5 L 5.46875 -9.078125 L 5.328125 -9.046875 C 5.035156 -9.253906 4.664062 -9.359375 4.21875 -9.359375 C 3.863281 -9.359375 3.597656 -9.269531 3.421875 -9.09375 C 3.253906 -8.925781 3.171875 -8.695312 3.171875 -8.40625 C 3.171875 -8.28125 3.175781 -8.164062 3.1875 -8.0625 C 3.207031 -7.957031 3.238281 -7.835938 3.28125 -7.703125 L 5.484375 -7.703125 L 5.484375 -6.171875 L 3.28125 -6.171875 L 3.28125 0 Z M 1.34375 0 "/></g></g></g><g fill="#152039" fill-opacity="1"><g transform="translate(294.581931, 282.194359)"><g><path d="M 2.078125 -8.625 C 1.722656 -8.625 1.4375 -8.726562 1.21875 -8.9375 C 1 -9.144531 0.890625 -9.421875 0.890625 -9.765625 C 0.890625 -10.085938 1 -10.351562 1.21875 -10.5625 C 1.4375 -10.78125 1.722656 -10.890625 2.078125 -10.890625 C 2.304688 -10.890625 2.507812 -10.835938 2.6875 -10.734375 C 2.875 -10.640625 3.015625 -10.507812 3.109375 -10.34375 C 3.210938 -10.175781 3.265625 -9.984375 3.265625 -9.765625 C 3.265625 -9.546875 3.210938 -9.347656 3.109375 -9.171875 C 3.015625 -9.003906 2.875 -8.867188 2.6875 -8.765625 C 2.507812 -8.671875 2.304688 -8.625 2.078125 -8.625 Z M 1.109375 0 L 1.109375 -7.703125 L 3.046875 -7.703125 L 3.046875 0 Z M 1.109375 0 "/></g></g></g><g fill="#152039" fill-opacity="1"><g transform="translate(310.16347, 282.194359)"><g><path d="M 5.3125 -1.84375 L 5.8125 -0.40625 C 5.601562 -0.226562 5.335938 -0.09375 5.015625 0 C 4.703125 0.09375 4.347656 0.140625 3.953125 0.140625 C 3.117188 0.140625 2.484375 -0.0820312 2.046875 -0.53125 C 1.617188 -0.988281 1.40625 -1.648438 1.40625 -2.515625 L 1.40625 -6.171875 L 0.234375 -6.171875 L 0.234375 -7.703125 L 1.40625 -7.703125 L 1.40625 -9.203125 L 3.34375 -9.515625 L 3.34375 -7.703125 L 5.515625 -7.703125 L 5.515625 -6.171875 L 3.34375 -6.171875 L 3.34375 -2.65625 C 3.34375 -2.269531 3.421875 -1.988281 3.578125 -1.8125 C 3.734375 -1.644531 3.960938 -1.5625 4.265625 -1.5625 C 4.609375 -1.5625 4.910156 -1.65625 5.171875 -1.84375 Z M 5.3125 -1.84375 "/></g></g></g></g></g></svg>