<svg xmlns="http://www.w3.org/2000/svg" xmlns:xlink="http://www.w3.org/1999/xlink" width="500" zoomAndPan="magnify" viewBox="0 0 375 374.999991" height="500" preserveAspectRatio="xMidYMid meet" version="1.0"><defs><g/><clipPath id="b59e091858"><path d="M 34 41.71875 L 375 41.71875 L 375 188 L 34 188 Z M 34 41.71875 " clip-rule="nonzero"/></clipPath><clipPath id="d4c5016719"><path d="M 0 187 L 341 187 L 341 333.46875 L 0 333.46875 Z M 0 187 " clip-rule="nonzero"/></clipPath></defs><g clip-path="url(#b59e091858)"><path fill="#c9a227" d="M 34.824219 187.484375 L 91.128906 187.484375 L 135.46875 131.410156 L 79.160156 131.410156 Z M 318.6875 41.710938 L 200.855469 187.484375 L 257.160156 187.484375 L 374.996094 41.710938 Z M 205.867188 78.339844 L 117.839844 187.484375 L 174.144531 187.484375 L 262.171875 78.339844 L 205.867188 78.339844 " fill-opacity="1" fill-rule="nonzero"/></g><g clip-path="url(#d4c5016719)"><path fill="#0e1422" d="M 340.175781 187.488281 L 283.871094 187.488281 L 239.53125 243.5625 L 295.839844 243.5625 Z M 56.308594 333.261719 L 174.144531 187.488281 L 117.839844 187.488281 L 0.00390625 333.261719 Z M 169.136719 296.636719 L 257.160156 187.488281 L 200.855469 187.488281 L 112.828125 296.636719 L 169.136719 296.636719 " fill-opacity="1" fill-rule="nonzero"/></g><g fill="#bc9c22" fill-opacity="1"><g transform="translate(205.253165, 110.118626)"><g><path d="M 7.109375 0 L 2.96875 0 L 2.96875 -22.84375 L 8.875 -22.84375 L 14.65625 -6.046875 L 14.984375 -6.046875 L 20.734375 -22.84375 L 26.5 -22.84375 L 26.5 0 L 22.21875 0 L 22.21875 -15.09375 L 21.828125 -15.15625 L 16.546875 0 L 12.78125 0 L 7.5 -15.15625 L 7.109375 -15.09375 Z M 7.109375 0 "/></g></g></g><g fill="#bc9c22" fill-opacity="1"><g transform="translate(288.634937, 110.118626)"><g><path d="M 17.71875 -14.25 L 17.71875 -22.84375 L 22.21875 -22.84375 L 22.21875 0 L 17.71875 0 L 17.71875 -10.40625 L 7.484375 -10.40625 L 7.484375 0 L 2.96875 0 L 2.96875 -22.84375 L 7.484375 -22.84375 L 7.484375 -14.25 Z M 17.71875 -14.25 "/></g></g></g><g fill="#bc9c22" fill-opacity="1"><g transform="translate(148.296631, 180.200028)"><g><path d="M 21.921875 0 L 17.171875 0 L 15.453125 -5.265625 L 6.703125 -5.265625 L 4.984375 0 L 0.34375 0 L 8.234375 -22.84375 L 14.03125 -22.84375 Z M 10.859375 -18.078125 L 7.921875 -9.0625 L 14.203125 -9.0625 L 11.25 -18.078125 Z M 10.859375 -18.078125 "/></g></g></g><g fill="#bc9c22" fill-opacity="1"><g transform="translate(228.97395, 180.200028)"><g><path d="M 21.921875 0 L 17.171875 0 L 15.453125 -5.265625 L 6.703125 -5.265625 L 4.984375 0 L 0.34375 0 L 8.234375 -22.84375 L 14.03125 -22.84375 Z M 10.859375 -18.078125 L 7.921875 -9.0625 L 14.203125 -9.0625 L 11.25 -18.078125 Z M 10.859375 -18.078125 "/></g></g></g></svg>