<svg xmlns="http://www.w3.org/2000/svg" xmlns:xlink="http://www.w3.org/1999/xlink" width="267" zoomAndPan="magnify" viewBox="0 0 200.25 67.499998" height="90" preserveAspectRatio="xMidYMid meet" version="1.0"><defs><g/><clipPath id="f2d15fd288"><path d="M 1 0 L 194 0 L 194 67.003906 L 1 67.003906 Z M 1 0 " clip-rule="nonzero"/></clipPath><clipPath id="7aab1e2983"><path d="M 6.3125 9.039062 L 66.816406 9.039062 L 66.816406 34.996094 L 6.3125 34.996094 Z M 6.3125 9.039062 " clip-rule="nonzero"/></clipPath><clipPath id="9aa0598f01"><path d="M 0.28125 34.816406 L 60.785156 34.816406 L 60.785156 60.804688 L 0.28125 60.804688 Z M 0.28125 34.816406 " clip-rule="nonzero"/></clipPath><clipPath id="98f451d13b"><rect x="0" width="193" y="0" height="68"/></clipPath></defs><g clip-path="url(#f2d15fd288)"><g transform="matrix(1, 0, 0, 1, 1, 0)"><g clip-path="url(#98f451d13b)"><g clip-path="url(#7aab1e2983)"><path fill="#c9a227" d="M 6.457031 34.902344 L 16.449219 34.902344 L 24.316406 24.953125 L 14.324219 24.953125 Z M 56.824219 9.039062 L 35.917969 34.902344 L 45.910156 34.902344 L 66.816406 9.039062 Z M 36.808594 15.539062 L 21.1875 34.902344 L 31.179688 34.902344 L 46.796875 15.539062 L 36.808594 15.539062 " fill-opacity="1" fill-rule="nonzero"/></g><g clip-path="url(#9aa0598f01)"><path fill="#0e1422" d="M 60.636719 34.90625 L 50.648438 34.90625 L 42.78125 44.855469 L 52.773438 44.855469 Z M 10.269531 60.769531 L 31.179688 34.90625 L 21.1875 34.90625 L 0.28125 60.769531 Z M 30.289062 54.269531 L 45.910156 34.90625 L 35.917969 34.90625 L 20.300781 54.269531 L 30.289062 54.269531 " fill-opacity="1" fill-rule="nonzero"/></g><path fill="#bc9c22" d="M 37.960938 21.175781 L 37.226562 21.175781 L 37.226562 17.125 L 38.273438 17.125 L 39.300781 20.105469 L 39.355469 20.105469 L 40.378906 17.125 L 41.402344 17.125 L 41.402344 21.175781 L 40.640625 21.175781 L 40.640625 18.5 L 40.570312 18.488281 L 39.632812 21.175781 L 38.964844 21.175781 L 38.027344 18.488281 L 37.960938 18.5 Z M 37.960938 21.175781 " fill-opacity="1" fill-rule="nonzero"/><path fill="#bc9c22" d="M 54.636719 18.648438 L 54.636719 17.125 L 55.4375 17.125 L 55.4375 21.175781 L 54.636719 21.175781 L 54.636719 19.332031 L 52.820312 19.332031 L 52.820312 21.175781 L 52.019531 21.175781 L 52.019531 17.125 L 52.820312 17.125 L 52.820312 18.648438 Z M 54.636719 18.648438 " fill-opacity="1" fill-rule="nonzero"/><path fill="#bc9c22" d="M 30.480469 33.613281 L 29.640625 33.613281 L 29.335938 32.675781 L 27.78125 32.675781 L 27.476562 33.613281 L 26.652344 33.613281 L 28.054688 29.558594 L 29.082031 29.558594 Z M 28.519531 30.402344 L 28 32.003906 L 29.113281 32.003906 L 28.589844 30.402344 Z M 28.519531 30.402344 " fill-opacity="1" fill-rule="nonzero"/><path fill="#bc9c22" d="M 44.796875 33.613281 L 43.953125 33.613281 L 43.648438 32.675781 L 42.097656 32.675781 L 41.792969 33.613281 L 40.96875 33.613281 L 42.367188 29.558594 L 43.398438 29.558594 Z M 42.835938 30.402344 L 42.3125 32.003906 L 43.425781 32.003906 L 42.902344 30.402344 Z M 42.835938 30.402344 " fill-opacity="1" fill-rule="nonzero"/><g fill="#152039" fill-opacity="1"><g transform="translate(70.80331, 30.857854)"><g><path d="M 11.140625 -21.5625 C 12.679688 -21.5625 14 -21.273438 15.09375 -20.703125 C 16.1875 -20.140625 17.015625 -19.347656 17.578125 -18.328125 C 18.140625 -17.316406 18.421875 -16.140625 18.421875 -14.796875 C 18.421875 -13.441406 18.140625 -12.257812 17.578125 -11.25 C 17.015625 -10.238281 16.1875 -9.445312 15.09375 -8.875 C 14 -8.3125 12.679688 -8.03125 11.140625 -8.03125 L 7.0625 -8.03125 L 7.0625 0 L 2.796875 0 L 2.796875 -21.5625 Z M 10.578125 -11.421875 C 12.941406 -11.421875 14.125 -12.546875 14.125 -14.796875 C 14.125 -17.054688 12.941406 -18.1875 10.578125 -18.1875 L 7.0625 -18.1875 L 7.0625 -11.421875 Z M 10.578125 -11.421875 "/></g></g></g><g fill="#152039" fill-opacity="1"><g transform="translate(89.901063, 30.857854)"><g><path d="M 2.34375 0 L 2.34375 -16.265625 L 6.3125 -16.265625 L 6.3125 -13.84375 L 6.625 -13.78125 C 7.019531 -14.6875 7.535156 -15.351562 8.171875 -15.78125 C 8.804688 -16.207031 9.582031 -16.421875 10.5 -16.421875 C 11.425781 -16.421875 12.128906 -16.257812 12.609375 -15.9375 L 11.921875 -12.421875 L 11.609375 -12.359375 C 11.335938 -12.460938 11.078125 -12.539062 10.828125 -12.59375 C 10.585938 -12.644531 10.289062 -12.671875 9.9375 -12.671875 C 8.800781 -12.671875 7.929688 -12.269531 7.328125 -11.46875 C 6.734375 -10.664062 6.4375 -9.378906 6.4375 -7.609375 L 6.4375 0 Z M 2.34375 0 "/></g></g></g><g fill="#152039" fill-opacity="1"><g transform="translate(102.053053, 30.857854)"><g><path d="M 9.453125 0.3125 C 7.859375 0.3125 6.457031 -0.015625 5.25 -0.671875 C 4.050781 -1.328125 3.117188 -2.285156 2.453125 -3.546875 C 1.785156 -4.804688 1.453125 -6.332031 1.453125 -8.125 C 1.453125 -9.914062 1.785156 -11.441406 2.453125 -12.703125 C 3.117188 -13.972656 4.050781 -14.9375 5.25 -15.59375 C 6.457031 -16.25 7.859375 -16.578125 9.453125 -16.578125 C 11.046875 -16.578125 12.441406 -16.25 13.640625 -15.59375 C 14.847656 -14.9375 15.785156 -13.972656 16.453125 -12.703125 C 17.128906 -11.441406 17.46875 -9.914062 17.46875 -8.125 C 17.46875 -6.332031 17.128906 -4.804688 16.453125 -3.546875 C 15.785156 -2.285156 14.847656 -1.328125 13.640625 -0.671875 C 12.441406 -0.015625 11.046875 0.3125 9.453125 0.3125 Z M 9.453125 -3.15625 C 11.984375 -3.15625 13.25 -4.8125 13.25 -8.125 C 13.25 -9.84375 12.921875 -11.101562 12.265625 -11.90625 C 11.617188 -12.707031 10.679688 -13.109375 9.453125 -13.109375 C 6.921875 -13.109375 5.65625 -11.445312 5.65625 -8.125 C 5.65625 -4.8125 6.921875 -3.15625 9.453125 -3.15625 Z M 9.453125 -3.15625 "/></g></g></g><g fill="#152039" fill-opacity="1"><g transform="translate(120.354477, 30.857854)"><g><path d="M 2.84375 0 L 2.84375 -13.03125 L 0.546875 -13.03125 L 0.546875 -16.28125 L 2.84375 -16.28125 C 2.675781 -16.96875 2.59375 -17.613281 2.59375 -18.21875 C 2.59375 -19.25 2.828125 -20.128906 3.296875 -20.859375 C 3.773438 -21.585938 4.457031 -22.144531 5.34375 -22.53125 C 6.226562 -22.914062 7.28125 -23.109375 8.5 -23.109375 C 10.289062 -23.109375 11.628906 -22.800781 12.515625 -22.1875 L 11.5625 -19.171875 L 11.25 -19.109375 C 10.644531 -19.546875 9.863281 -19.765625 8.90625 -19.765625 C 8.164062 -19.765625 7.613281 -19.582031 7.25 -19.21875 C 6.882812 -18.863281 6.703125 -18.375 6.703125 -17.75 C 6.703125 -17.488281 6.71875 -17.242188 6.75 -17.015625 C 6.78125 -16.796875 6.84375 -16.550781 6.9375 -16.28125 L 11.578125 -16.28125 L 11.578125 -13.03125 L 6.9375 -13.03125 L 6.9375 0 Z M 2.84375 0 "/></g></g></g><g fill="#152039" fill-opacity="1"><g transform="translate(131.488934, 30.857854)"><g><path d="M 4.375 -18.21875 C 3.644531 -18.21875 3.046875 -18.441406 2.578125 -18.890625 C 2.117188 -19.335938 1.890625 -19.910156 1.890625 -20.609375 C 1.890625 -21.316406 2.117188 -21.890625 2.578125 -22.328125 C 3.046875 -22.773438 3.644531 -23 4.375 -23 C 4.875 -23 5.3125 -22.894531 5.6875 -22.6875 C 6.070312 -22.488281 6.367188 -22.207031 6.578125 -21.84375 C 6.796875 -21.488281 6.90625 -21.078125 6.90625 -20.609375 C 6.90625 -20.148438 6.796875 -19.738281 6.578125 -19.375 C 6.367188 -19.007812 6.070312 -18.722656 5.6875 -18.515625 C 5.3125 -18.316406 4.875 -18.21875 4.375 -18.21875 Z M 2.34375 0 L 2.34375 -16.265625 L 6.4375 -16.265625 L 6.4375 0 Z M 2.34375 0 "/></g></g></g><g fill="#152039" fill-opacity="1"><g transform="translate(139.64453, 30.857854)"><g><path d="M 11.21875 -3.875 L 12.28125 -0.859375 C 11.84375 -0.492188 11.285156 -0.207031 10.609375 0 C 9.941406 0.207031 9.1875 0.3125 8.34375 0.3125 C 6.582031 0.3125 5.242188 -0.164062 4.328125 -1.125 C 3.421875 -2.082031 2.96875 -3.476562 2.96875 -5.3125 L 2.96875 -13.03125 L 0.484375 -13.03125 L 0.484375 -16.28125 L 2.96875 -16.28125 L 2.96875 -19.453125 L 7.046875 -20.109375 L 7.046875 -16.28125 L 11.671875 -16.28125 L 11.671875 -13.03125 L 7.046875 -13.03125 L 7.046875 -5.609375 C 7.046875 -4.796875 7.210938 -4.203125 7.546875 -3.828125 C 7.878906 -3.460938 8.367188 -3.28125 9.015625 -3.28125 C 9.742188 -3.28125 10.375 -3.476562 10.90625 -3.875 Z M 11.21875 -3.875 "/></g></g></g><g fill="#bc9c22" fill-opacity="1"><g transform="translate(71.335565, 49.885614)"><g><path d="M 4.1875 0 L 1.75 0 L 1.75 -13.46875 L 5.234375 -13.46875 L 8.640625 -3.5625 L 8.84375 -3.5625 L 12.234375 -13.46875 L 15.625 -13.46875 L 15.625 0 L 13.109375 0 L 13.109375 -8.90625 L 12.875 -8.9375 L 9.765625 0 L 7.53125 0 L 4.421875 -8.9375 L 4.1875 -8.90625 Z M 4.1875 0 "/></g></g></g><g fill="#bc9c22" fill-opacity="1"><g transform="translate(88.350104, 49.885614)"><g><path d="M 3.96875 0.1875 C 3.3125 0.1875 2.742188 0.0664062 2.265625 -0.171875 C 1.785156 -0.410156 1.414062 -0.757812 1.15625 -1.21875 C 0.90625 -1.6875 0.78125 -2.242188 0.78125 -2.890625 C 0.78125 -3.492188 0.90625 -4 1.15625 -4.40625 C 1.414062 -4.8125 1.816406 -5.144531 2.359375 -5.40625 C 2.898438 -5.675781 3.609375 -5.878906 4.484375 -6.015625 C 5.085938 -6.117188 5.546875 -6.226562 5.859375 -6.34375 C 6.179688 -6.457031 6.394531 -6.585938 6.5 -6.734375 C 6.613281 -6.878906 6.671875 -7.066406 6.671875 -7.296875 C 6.671875 -7.617188 6.554688 -7.863281 6.328125 -8.03125 C 6.097656 -8.207031 5.722656 -8.296875 5.203125 -8.296875 C 4.628906 -8.296875 4.085938 -8.171875 3.578125 -7.921875 C 3.066406 -7.671875 2.628906 -7.34375 2.265625 -6.9375 L 2.078125 -6.9375 L 1 -8.546875 C 1.519531 -9.117188 2.148438 -9.5625 2.890625 -9.875 C 3.640625 -10.195312 4.453125 -10.359375 5.328125 -10.359375 C 6.671875 -10.359375 7.644531 -10.070312 8.25 -9.5 C 8.851562 -8.925781 9.15625 -8.113281 9.15625 -7.0625 L 9.15625 -2.65625 C 9.15625 -2.195312 9.351562 -1.96875 9.75 -1.96875 C 9.90625 -1.96875 10.054688 -2 10.203125 -2.0625 L 10.328125 -2.015625 L 10.515625 -0.234375 C 10.367188 -0.140625 10.171875 -0.0625 9.921875 0 C 9.671875 0.0507812 9.394531 0.078125 9.09375 0.078125 C 8.488281 0.078125 8.015625 -0.0351562 7.671875 -0.265625 C 7.328125 -0.503906 7.082031 -0.875 6.9375 -1.375 L 6.75 -1.390625 C 6.25 -0.335938 5.320312 0.1875 3.96875 0.1875 Z M 4.78125 -1.71875 C 5.363281 -1.71875 5.832031 -1.914062 6.1875 -2.3125 C 6.539062 -2.707031 6.71875 -3.257812 6.71875 -3.96875 L 6.71875 -5 L 6.546875 -5.03125 C 6.390625 -4.90625 6.1875 -4.800781 5.9375 -4.71875 C 5.6875 -4.632812 5.328125 -4.554688 4.859375 -4.484375 C 4.304688 -4.390625 3.910156 -4.226562 3.671875 -4 C 3.429688 -3.78125 3.3125 -3.460938 3.3125 -3.046875 C 3.3125 -2.609375 3.4375 -2.273438 3.6875 -2.046875 C 3.945312 -1.828125 4.3125 -1.71875 4.78125 -1.71875 Z M 4.78125 -1.71875 "/></g></g></g><g fill="#bc9c22" fill-opacity="1"><g transform="translate(98.691696, 49.885614)"><g><path d="M 1.46875 0 L 1.46875 -10.171875 L 3.921875 -10.171875 L 3.921875 -8.671875 L 4.109375 -8.625 C 4.742188 -9.78125 5.769531 -10.359375 7.1875 -10.359375 C 8.363281 -10.359375 9.222656 -10.035156 9.765625 -9.390625 C 10.316406 -8.753906 10.59375 -7.828125 10.59375 -6.609375 L 10.59375 0 L 8.046875 0 L 8.046875 -6.296875 C 8.046875 -6.972656 7.910156 -7.457031 7.640625 -7.75 C 7.367188 -8.050781 6.9375 -8.203125 6.34375 -8.203125 C 5.613281 -8.203125 5.039062 -7.960938 4.625 -7.484375 C 4.21875 -7.015625 4.015625 -6.273438 4.015625 -5.265625 L 4.015625 0 Z M 1.46875 0 "/></g></g></g><g fill="#bc9c22" fill-opacity="1"><g transform="translate(110.222252, 49.885614)"><g><path d="M 3.96875 0.1875 C 3.3125 0.1875 2.742188 0.0664062 2.265625 -0.171875 C 1.785156 -0.410156 1.414062 -0.757812 1.15625 -1.21875 C 0.90625 -1.6875 0.78125 -2.242188 0.78125 -2.890625 C 0.78125 -3.492188 0.90625 -4 1.15625 -4.40625 C 1.414062 -4.8125 1.816406 -5.144531 2.359375 -5.40625 C 2.898438 -5.675781 3.609375 -5.878906 4.484375 -6.015625 C 5.085938 -6.117188 5.546875 -6.226562 5.859375 -6.34375 C 6.179688 -6.457031 6.394531 -6.585938 6.5 -6.734375 C 6.613281 -6.878906 6.671875 -7.066406 6.671875 -7.296875 C 6.671875 -7.617188 6.554688 -7.863281 6.328125 -8.03125 C 6.097656 -8.207031 5.722656 -8.296875 5.203125 -8.296875 C 4.628906 -8.296875 4.085938 -8.171875 3.578125 -7.921875 C 3.066406 -7.671875 2.628906 -7.34375 2.265625 -6.9375 L 2.078125 -6.9375 L 1 -8.546875 C 1.519531 -9.117188 2.148438 -9.5625 2.890625 -9.875 C 3.640625 -10.195312 4.453125 -10.359375 5.328125 -10.359375 C 6.671875 -10.359375 7.644531 -10.070312 8.25 -9.5 C 8.851562 -8.925781 9.15625 -8.113281 9.15625 -7.0625 L 9.15625 -2.65625 C 9.15625 -2.195312 9.351562 -1.96875 9.75 -1.96875 C 9.90625 -1.96875 10.054688 -2 10.203125 -2.0625 L 10.328125 -2.015625 L 10.515625 -0.234375 C 10.367188 -0.140625 10.171875 -0.0625 9.921875 0 C 9.671875 0.0507812 9.394531 0.078125 9.09375 0.078125 C 8.488281 0.078125 8.015625 -0.0351562 7.671875 -0.265625 C 7.328125 -0.503906 7.082031 -0.875 6.9375 -1.375 L 6.75 -1.390625 C 6.25 -0.335938 5.320312 0.1875 3.96875 0.1875 Z M 4.78125 -1.71875 C 5.363281 -1.71875 5.832031 -1.914062 6.1875 -2.3125 C 6.539062 -2.707031 6.71875 -3.257812 6.71875 -3.96875 L 6.71875 -5 L 6.546875 -5.03125 C 6.390625 -4.90625 6.1875 -4.800781 5.9375 -4.71875 C 5.6875 -4.632812 5.328125 -4.554688 4.859375 -4.484375 C 4.304688 -4.390625 3.910156 -4.226562 3.671875 -4 C 3.429688 -3.78125 3.3125 -3.460938 3.3125 -3.046875 C 3.3125 -2.609375 3.4375 -2.273438 3.6875 -2.046875 C 3.945312 -1.828125 4.3125 -1.71875 4.78125 -1.71875 Z M 4.78125 -1.71875 "/></g></g></g><g fill="#bc9c22" fill-opacity="1"><g transform="translate(120.563844, 49.885614)"><g><path d="M 5.265625 4.3125 C 3.585938 4.3125 2.347656 4.066406 1.546875 3.578125 C 0.753906 3.085938 0.359375 2.398438 0.359375 1.515625 C 0.359375 0.984375 0.523438 0.546875 0.859375 0.203125 C 1.203125 -0.128906 1.695312 -0.359375 2.34375 -0.484375 L 2.34375 -0.671875 C 2 -0.878906 1.75 -1.109375 1.59375 -1.359375 C 1.445312 -1.617188 1.375 -1.921875 1.375 -2.265625 C 1.375 -3.078125 1.90625 -3.625 2.96875 -3.90625 L 2.96875 -4.09375 C 2.414062 -4.414062 2 -4.804688 1.71875 -5.265625 C 1.445312 -5.734375 1.3125 -6.296875 1.3125 -6.953125 C 1.3125 -7.628906 1.46875 -8.222656 1.78125 -8.734375 C 2.09375 -9.242188 2.546875 -9.640625 3.140625 -9.921875 C 3.742188 -10.210938 4.460938 -10.359375 5.296875 -10.359375 C 6.148438 -10.359375 6.828125 -10.210938 7.328125 -9.921875 C 7.640625 -10.367188 7.820312 -10.894531 7.875 -11.5 L 8.0625 -11.609375 L 9.890625 -11.15625 C 9.835938 -10.675781 9.695312 -10.269531 9.46875 -9.9375 C 9.25 -9.613281 8.898438 -9.320312 8.421875 -9.0625 L 8.421875 -8.859375 C 8.984375 -8.347656 9.265625 -7.644531 9.265625 -6.75 C 9.265625 -6.125 9.109375 -5.5625 8.796875 -5.0625 C 8.484375 -4.5625 8.023438 -4.164062 7.421875 -3.875 C 6.828125 -3.59375 6.117188 -3.453125 5.296875 -3.453125 L 4.90625 -3.453125 C 4.664062 -3.460938 4.492188 -3.46875 4.390625 -3.46875 C 4.160156 -3.46875 3.976562 -3.40625 3.84375 -3.28125 C 3.71875 -3.15625 3.65625 -2.992188 3.65625 -2.796875 C 3.65625 -2.585938 3.738281 -2.421875 3.90625 -2.296875 C 4.082031 -2.179688 4.332031 -2.113281 4.65625 -2.09375 L 6.9375 -2.015625 C 9.1875 -1.953125 10.3125 -0.984375 10.3125 0.890625 C 10.3125 1.546875 10.144531 2.128906 9.8125 2.640625 C 9.476562 3.148438 8.9375 3.554688 8.1875 3.859375 C 7.4375 4.160156 6.460938 4.3125 5.265625 4.3125 Z M 5.296875 -5.234375 C 5.785156 -5.234375 6.164062 -5.375 6.4375 -5.65625 C 6.71875 -5.945312 6.859375 -6.363281 6.859375 -6.90625 C 6.859375 -7.4375 6.71875 -7.84375 6.4375 -8.125 C 6.164062 -8.414062 5.785156 -8.5625 5.296875 -8.5625 C 4.796875 -8.5625 4.410156 -8.414062 4.140625 -8.125 C 3.867188 -7.84375 3.734375 -7.4375 3.734375 -6.90625 C 3.734375 -6.363281 3.867188 -5.945312 4.140625 -5.65625 C 4.410156 -5.375 4.796875 -5.234375 5.296875 -5.234375 Z M 5.265625 2.453125 C 6.140625 2.453125 6.773438 2.328125 7.171875 2.078125 C 7.566406 1.835938 7.765625 1.523438 7.765625 1.140625 C 7.765625 0.816406 7.660156 0.578125 7.453125 0.421875 C 7.253906 0.273438 6.9375 0.195312 6.5 0.1875 L 4.484375 0.09375 C 4.421875 0.09375 4.359375 0.0859375 4.296875 0.078125 C 4.242188 0.078125 4.1875 0.078125 4.125 0.078125 C 3.695312 0.078125 3.367188 0.164062 3.140625 0.34375 C 2.921875 0.53125 2.8125 0.785156 2.8125 1.109375 C 2.8125 1.546875 3.015625 1.878906 3.421875 2.109375 C 3.835938 2.335938 4.453125 2.453125 5.265625 2.453125 Z M 5.265625 2.453125 "/></g></g></g><g fill="#bc9c22" fill-opacity="1"><g transform="translate(130.757967, 49.885614)"><g><path d="M 10.046875 -4.5 L 3.515625 -4.5 C 3.585938 -3.613281 3.835938 -2.96875 4.265625 -2.5625 C 4.691406 -2.164062 5.28125 -1.96875 6.03125 -1.96875 C 6.613281 -1.96875 7.082031 -2.078125 7.4375 -2.296875 C 7.800781 -2.515625 8.097656 -2.847656 8.328125 -3.296875 L 8.515625 -3.296875 L 10.21875 -2.203125 C 9.882812 -1.492188 9.378906 -0.914062 8.703125 -0.46875 C 8.035156 -0.03125 7.144531 0.1875 6.03125 0.1875 C 4.976562 0.1875 4.066406 -0.0078125 3.296875 -0.40625 C 2.535156 -0.800781 1.945312 -1.394531 1.53125 -2.1875 C 1.113281 -2.976562 0.90625 -3.941406 0.90625 -5.078125 C 0.90625 -6.234375 1.125 -7.207031 1.5625 -8 C 2 -8.789062 2.585938 -9.378906 3.328125 -9.765625 C 4.078125 -10.160156 4.914062 -10.359375 5.84375 -10.359375 C 7.28125 -10.359375 8.378906 -9.976562 9.140625 -9.21875 C 9.910156 -8.457031 10.296875 -7.335938 10.296875 -5.859375 C 10.296875 -5.328125 10.273438 -4.914062 10.234375 -4.625 Z M 7.859375 -6.15625 C 7.828125 -6.925781 7.644531 -7.488281 7.3125 -7.84375 C 6.976562 -8.195312 6.488281 -8.375 5.84375 -8.375 C 4.550781 -8.375 3.789062 -7.632812 3.5625 -6.15625 Z M 7.859375 -6.15625 "/></g></g></g><g fill="#bc9c22" fill-opacity="1"><g transform="translate(141.431363, 49.885614)"><g><path d="M 1.46875 0 L 1.46875 -10.171875 L 3.921875 -10.171875 L 3.921875 -8.796875 L 4.109375 -8.765625 C 4.441406 -9.304688 4.828125 -9.707031 5.265625 -9.96875 C 5.710938 -10.226562 6.285156 -10.359375 6.984375 -10.359375 C 7.753906 -10.359375 8.367188 -10.207031 8.828125 -9.90625 C 9.296875 -9.601562 9.640625 -9.160156 9.859375 -8.578125 L 10.0625 -8.578125 C 10.375 -9.179688 10.773438 -9.628906 11.265625 -9.921875 C 11.765625 -10.210938 12.378906 -10.359375 13.109375 -10.359375 C 15.222656 -10.359375 16.28125 -9.1875 16.28125 -6.84375 L 16.28125 0 L 13.71875 0 L 13.71875 -6.515625 C 13.71875 -7.109375 13.597656 -7.535156 13.359375 -7.796875 C 13.128906 -8.066406 12.757812 -8.203125 12.25 -8.203125 C 10.84375 -8.203125 10.140625 -7.265625 10.140625 -5.390625 L 10.140625 0 L 7.59375 0 L 7.59375 -6.515625 C 7.59375 -7.109375 7.472656 -7.535156 7.234375 -7.796875 C 7.003906 -8.066406 6.628906 -8.203125 6.109375 -8.203125 C 5.453125 -8.203125 4.9375 -7.984375 4.5625 -7.546875 C 4.195312 -7.109375 4.015625 -6.410156 4.015625 -5.453125 L 4.015625 0 Z M 1.46875 0 "/></g></g></g><g fill="#bc9c22" fill-opacity="1"><g transform="translate(158.639454, 49.885614)"><g><path d="M 10.046875 -4.5 L 3.515625 -4.5 C 3.585938 -3.613281 3.835938 -2.96875 4.265625 -2.5625 C 4.691406 -2.164062 5.28125 -1.96875 6.03125 -1.96875 C 6.613281 -1.96875 7.082031 -2.078125 7.4375 -2.296875 C 7.800781 -2.515625 8.097656 -2.847656 8.328125 -3.296875 L 8.515625 -3.296875 L 10.21875 -2.203125 C 9.882812 -1.492188 9.378906 -0.914062 8.703125 -0.46875 C 8.035156 -0.03125 7.144531 0.1875 6.03125 0.1875 C 4.976562 0.1875 4.066406 -0.0078125 3.296875 -0.40625 C 2.535156 -0.800781 1.945312 -1.394531 1.53125 -2.1875 C 1.113281 -2.976562 0.90625 -3.941406 0.90625 -5.078125 C 0.90625 -6.234375 1.125 -7.207031 1.5625 -8 C 2 -8.789062 2.585938 -9.378906 3.328125 -9.765625 C 4.078125 -10.160156 4.914062 -10.359375 5.84375 -10.359375 C 7.28125 -10.359375 8.378906 -9.976562 9.140625 -9.21875 C 9.910156 -8.457031 10.296875 -7.335938 10.296875 -5.859375 C 10.296875 -5.328125 10.273438 -4.914062 10.234375 -4.625 Z M 7.859375 -6.15625 C 7.828125 -6.925781 7.644531 -7.488281 7.3125 -7.84375 C 6.976562 -8.195312 6.488281 -8.375 5.84375 -8.375 C 4.550781 -8.375 3.789062 -7.632812 3.5625 -6.15625 Z M 7.859375 -6.15625 "/></g></g></g><g fill="#bc9c22" fill-opacity="1"><g transform="translate(169.312849, 49.885614)"><g><path d="M 1.46875 0 L 1.46875 -10.171875 L 3.921875 -10.171875 L 3.921875 -8.671875 L 4.109375 -8.625 C 4.742188 -9.78125 5.769531 -10.359375 7.1875 -10.359375 C 8.363281 -10.359375 9.222656 -10.035156 9.765625 -9.390625 C 10.316406 -8.753906 10.59375 -7.828125 10.59375 -6.609375 L 10.59375 0 L 8.046875 0 L 8.046875 -6.296875 C 8.046875 -6.972656 7.910156 -7.457031 7.640625 -7.75 C 7.367188 -8.050781 6.9375 -8.203125 6.34375 -8.203125 C 5.613281 -8.203125 5.039062 -7.960938 4.625 -7.484375 C 4.21875 -7.015625 4.015625 -6.273438 4.015625 -5.265625 L 4.015625 0 Z M 1.46875 0 "/></g></g></g><g fill="#bc9c22" fill-opacity="1"><g transform="translate(180.843405, 49.885614)"><g><path d="M 7.015625 -2.421875 L 7.671875 -0.53125 C 7.398438 -0.300781 7.054688 -0.125 6.640625 0 C 6.222656 0.125 5.75 0.1875 5.21875 0.1875 C 4.113281 0.1875 3.273438 -0.109375 2.703125 -0.703125 C 2.140625 -1.304688 1.859375 -2.175781 1.859375 -3.3125 L 1.859375 -8.140625 L 0.296875 -8.140625 L 0.296875 -10.171875 L 1.859375 -10.171875 L 1.859375 -12.15625 L 4.40625 -12.578125 L 4.40625 -10.171875 L 7.296875 -10.171875 L 7.296875 -8.140625 L 4.40625 -8.140625 L 4.40625 -3.5 C 4.40625 -3 4.507812 -2.632812 4.71875 -2.40625 C 4.925781 -2.175781 5.226562 -2.0625 5.625 -2.0625 C 6.082031 -2.0625 6.476562 -2.179688 6.8125 -2.421875 Z M 7.015625 -2.421875 "/></g></g></g><g fill="#152039" fill-opacity="1"><g transform="translate(73.393266, 61.060314)"><g><path d="M 1.765625 -5.390625 L 1.765625 -0.890625 L 4.1875 -0.890625 L 4.1875 0 L 0.703125 0 L 0.703125 -5.390625 Z M 1.765625 -5.390625 "/></g></g></g><g fill="#152039" fill-opacity="1"><g transform="translate(81.465845, 61.060314)"><g><path d="M 4.015625 -1.796875 L 1.40625 -1.796875 C 1.4375 -1.441406 1.535156 -1.179688 1.703125 -1.015625 C 1.878906 -0.859375 2.113281 -0.78125 2.40625 -0.78125 C 2.644531 -0.78125 2.832031 -0.820312 2.96875 -0.90625 C 3.113281 -1 3.234375 -1.132812 3.328125 -1.3125 L 3.40625 -1.3125 L 4.078125 -0.875 C 3.953125 -0.59375 3.753906 -0.363281 3.484375 -0.1875 C 3.210938 -0.0078125 2.851562 0.078125 2.40625 0.078125 C 1.988281 0.078125 1.625 0 1.3125 -0.15625 C 1.007812 -0.320312 0.773438 -0.5625 0.609375 -0.875 C 0.441406 -1.1875 0.359375 -1.570312 0.359375 -2.03125 C 0.359375 -2.488281 0.445312 -2.875 0.625 -3.1875 C 0.800781 -3.507812 1.035156 -3.75 1.328125 -3.90625 C 1.628906 -4.0625 1.96875 -4.140625 2.34375 -4.140625 C 2.914062 -4.140625 3.351562 -3.988281 3.65625 -3.6875 C 3.957031 -3.382812 4.109375 -2.9375 4.109375 -2.34375 C 4.109375 -2.125 4.101562 -1.957031 4.09375 -1.84375 Z M 3.140625 -2.46875 C 3.128906 -2.769531 3.054688 -2.988281 2.921875 -3.125 C 2.785156 -3.269531 2.59375 -3.34375 2.34375 -3.34375 C 1.820312 -3.34375 1.515625 -3.050781 1.421875 -2.46875 Z M 3.140625 -2.46875 "/></g></g></g><g fill="#152039" fill-opacity="1"><g transform="translate(89.593725, 61.060314)"><g><path d="M 1.578125 0.078125 C 1.316406 0.078125 1.09375 0.03125 0.90625 -0.0625 C 0.71875 -0.15625 0.570312 -0.296875 0.46875 -0.484375 C 0.363281 -0.671875 0.3125 -0.894531 0.3125 -1.15625 C 0.3125 -1.394531 0.363281 -1.597656 0.46875 -1.765625 C 0.570312 -1.929688 0.726562 -2.066406 0.9375 -2.171875 C 1.15625 -2.273438 1.441406 -2.351562 1.796875 -2.40625 C 2.035156 -2.445312 2.21875 -2.488281 2.34375 -2.53125 C 2.46875 -2.582031 2.550781 -2.632812 2.59375 -2.6875 C 2.644531 -2.75 2.671875 -2.828125 2.671875 -2.921875 C 2.671875 -3.046875 2.625 -3.140625 2.53125 -3.203125 C 2.4375 -3.273438 2.285156 -3.3125 2.078125 -3.3125 C 1.847656 -3.3125 1.628906 -3.257812 1.421875 -3.15625 C 1.222656 -3.0625 1.050781 -2.929688 0.90625 -2.765625 L 0.828125 -2.765625 L 0.40625 -3.421875 C 0.613281 -3.648438 0.863281 -3.828125 1.15625 -3.953125 C 1.457031 -4.078125 1.78125 -4.140625 2.125 -4.140625 C 2.664062 -4.140625 3.054688 -4.023438 3.296875 -3.796875 C 3.535156 -3.566406 3.65625 -3.242188 3.65625 -2.828125 L 3.65625 -1.0625 C 3.65625 -0.875 3.738281 -0.78125 3.90625 -0.78125 C 3.957031 -0.78125 4.015625 -0.796875 4.078125 -0.828125 L 4.125 -0.8125 L 4.203125 -0.09375 C 4.148438 -0.0625 4.070312 -0.03125 3.96875 0 C 3.863281 0.0195312 3.753906 0.03125 3.640625 0.03125 C 3.390625 0.03125 3.195312 -0.015625 3.0625 -0.109375 C 2.925781 -0.203125 2.832031 -0.347656 2.78125 -0.546875 L 2.703125 -0.5625 C 2.503906 -0.132812 2.128906 0.078125 1.578125 0.078125 Z M 1.90625 -0.6875 C 2.144531 -0.6875 2.332031 -0.765625 2.46875 -0.921875 C 2.613281 -1.078125 2.6875 -1.296875 2.6875 -1.578125 L 2.6875 -2 L 2.609375 -2.015625 C 2.554688 -1.960938 2.476562 -1.921875 2.375 -1.890625 C 2.269531 -1.859375 2.128906 -1.828125 1.953125 -1.796875 C 1.722656 -1.753906 1.5625 -1.6875 1.46875 -1.59375 C 1.375 -1.507812 1.328125 -1.382812 1.328125 -1.21875 C 1.328125 -1.039062 1.375 -0.90625 1.46875 -0.8125 C 1.570312 -0.726562 1.71875 -0.6875 1.90625 -0.6875 Z M 1.90625 -0.6875 "/></g></g></g><g fill="#152039" fill-opacity="1"><g transform="translate(97.588884, 61.060314)"><g><path d="M 2.015625 0.078125 C 1.691406 0.078125 1.40625 0 1.15625 -0.15625 C 0.90625 -0.3125 0.707031 -0.546875 0.5625 -0.859375 C 0.425781 -1.179688 0.359375 -1.570312 0.359375 -2.03125 C 0.359375 -2.5 0.429688 -2.890625 0.578125 -3.203125 C 0.722656 -3.515625 0.921875 -3.75 1.171875 -3.90625 C 1.429688 -4.0625 1.726562 -4.140625 2.0625 -4.140625 C 2.3125 -4.140625 2.53125 -4.09375 2.71875 -4 C 2.90625 -3.914062 3.0625 -3.785156 3.1875 -3.609375 L 3.265625 -3.625 L 3.265625 -5.703125 L 4.28125 -5.703125 L 4.28125 0 L 3.265625 0 L 3.265625 -0.53125 L 3.1875 -0.546875 C 3.070312 -0.347656 2.914062 -0.191406 2.71875 -0.078125 C 2.519531 0.0234375 2.285156 0.078125 2.015625 0.078125 Z M 2.34375 -0.78125 C 2.625 -0.78125 2.847656 -0.882812 3.015625 -1.09375 C 3.179688 -1.300781 3.265625 -1.613281 3.265625 -2.03125 C 3.265625 -2.445312 3.179688 -2.757812 3.015625 -2.96875 C 2.847656 -3.175781 2.625 -3.28125 2.34375 -3.28125 C 2.039062 -3.28125 1.8125 -3.175781 1.65625 -2.96875 C 1.5 -2.769531 1.421875 -2.457031 1.421875 -2.03125 C 1.421875 -1.601562 1.5 -1.285156 1.65625 -1.078125 C 1.8125 -0.878906 2.039062 -0.78125 2.34375 -0.78125 Z M 2.34375 -0.78125 "/></g></g></g><g fill="#152039" fill-opacity="1"><g transform="translate(106.170229, 61.060314)"><g/></g></g><g fill="#152039" fill-opacity="1"><g transform="translate(111.658424, 61.060314)"><g><path d="M 0.90625 1.71875 C 0.726562 1.71875 0.566406 1.703125 0.421875 1.671875 C 0.285156 1.648438 0.171875 1.617188 0.078125 1.578125 L 0.25 0.75 L 0.3125 0.734375 C 0.375 0.765625 0.445312 0.789062 0.53125 0.8125 C 0.625 0.832031 0.71875 0.84375 0.8125 0.84375 C 0.976562 0.84375 1.113281 0.816406 1.21875 0.765625 C 1.332031 0.722656 1.425781 0.648438 1.5 0.546875 C 1.582031 0.453125 1.648438 0.316406 1.703125 0.140625 L 0.09375 -4.0625 L 1.15625 -4.0625 L 2.171875 -1.234375 L 2.25 -1.234375 L 3.234375 -4.0625 L 4.28125 -4.0625 L 2.640625 0.25 C 2.515625 0.601562 2.375 0.882812 2.21875 1.09375 C 2.0625 1.3125 1.875 1.46875 1.65625 1.5625 C 1.445312 1.664062 1.195312 1.71875 0.90625 1.71875 Z M 0.90625 1.71875 "/></g></g></g><g fill="#152039" fill-opacity="1"><g transform="translate(119.731004, 61.060314)"><g><path d="M 2.359375 0.078125 C 1.960938 0.078125 1.613281 0 1.3125 -0.15625 C 1.007812 -0.320312 0.773438 -0.5625 0.609375 -0.875 C 0.441406 -1.195312 0.359375 -1.582031 0.359375 -2.03125 C 0.359375 -2.476562 0.441406 -2.859375 0.609375 -3.171875 C 0.773438 -3.492188 1.007812 -3.734375 1.3125 -3.890625 C 1.613281 -4.054688 1.960938 -4.140625 2.359375 -4.140625 C 2.753906 -4.140625 3.101562 -4.054688 3.40625 -3.890625 C 3.707031 -3.734375 3.941406 -3.492188 4.109375 -3.171875 C 4.273438 -2.859375 4.359375 -2.476562 4.359375 -2.03125 C 4.359375 -1.582031 4.273438 -1.195312 4.109375 -0.875 C 3.941406 -0.5625 3.707031 -0.320312 3.40625 -0.15625 C 3.101562 0 2.753906 0.078125 2.359375 0.078125 Z M 2.359375 -0.78125 C 2.992188 -0.78125 3.3125 -1.195312 3.3125 -2.03125 C 3.3125 -2.457031 3.226562 -2.769531 3.0625 -2.96875 C 2.90625 -3.175781 2.671875 -3.28125 2.359375 -3.28125 C 1.734375 -3.28125 1.421875 -2.863281 1.421875 -2.03125 C 1.421875 -1.195312 1.734375 -0.78125 2.359375 -0.78125 Z M 2.359375 -0.78125 "/></g></g></g><g fill="#152039" fill-opacity="1"><g transform="translate(128.164881, 61.060314)"><g><path d="M 1.859375 0.078125 C 1.398438 0.078125 1.0625 -0.046875 0.84375 -0.296875 C 0.625 -0.546875 0.515625 -0.90625 0.515625 -1.375 L 0.515625 -4.0625 L 1.546875 -4.0625 L 1.546875 -1.5 C 1.546875 -1.25 1.597656 -1.066406 1.703125 -0.953125 C 1.804688 -0.835938 1.972656 -0.78125 2.203125 -0.78125 C 2.484375 -0.78125 2.703125 -0.875 2.859375 -1.0625 C 3.015625 -1.25 3.09375 -1.539062 3.09375 -1.9375 L 3.09375 -4.0625 L 4.109375 -4.0625 L 4.109375 0 L 3.140625 0 L 3.140625 -0.59375 L 3.0625 -0.609375 C 2.925781 -0.378906 2.765625 -0.207031 2.578125 -0.09375 C 2.390625 0.0195312 2.148438 0.078125 1.859375 0.078125 Z M 1.859375 0.078125 "/></g></g></g><g fill="#152039" fill-opacity="1"><g transform="translate(136.576638, 61.060314)"><g><path d="M 0.578125 0 L 0.578125 -4.0625 L 1.578125 -4.0625 L 1.578125 -3.453125 L 1.65625 -3.453125 C 1.75 -3.671875 1.875 -3.832031 2.03125 -3.9375 C 2.195312 -4.039062 2.394531 -4.09375 2.625 -4.09375 C 2.851562 -4.09375 3.03125 -4.054688 3.15625 -3.984375 L 2.984375 -3.109375 L 2.90625 -3.09375 C 2.832031 -3.113281 2.765625 -3.128906 2.703125 -3.140625 C 2.640625 -3.160156 2.566406 -3.171875 2.484375 -3.171875 C 2.203125 -3.171875 1.984375 -3.066406 1.828125 -2.859375 C 1.679688 -2.660156 1.609375 -2.34375 1.609375 -1.90625 L 1.609375 0 Z M 0.578125 0 "/></g></g></g><g fill="#152039" fill-opacity="1"><g transform="translate(143.473157, 61.060314)"><g/></g></g><g fill="#152039" fill-opacity="1"><g transform="translate(148.961352, 61.060314)"><g><path d="M 2.78125 -5.390625 C 3.164062 -5.390625 3.492188 -5.316406 3.765625 -5.171875 C 4.046875 -5.035156 4.253906 -4.835938 4.390625 -4.578125 C 4.535156 -4.328125 4.609375 -4.035156 4.609375 -3.703125 C 4.609375 -3.359375 4.535156 -3.0625 4.390625 -2.8125 C 4.253906 -2.5625 4.046875 -2.363281 3.765625 -2.21875 C 3.492188 -2.082031 3.164062 -2.015625 2.78125 -2.015625 L 1.765625 -2.015625 L 1.765625 0 L 0.703125 0 L 0.703125 -5.390625 Z M 2.640625 -2.859375 C 3.234375 -2.859375 3.53125 -3.140625 3.53125 -3.703125 C 3.53125 -4.265625 3.234375 -4.546875 2.640625 -4.546875 L 1.765625 -4.546875 L 1.765625 -2.859375 Z M 2.640625 -2.859375 "/></g></g></g><g fill="#152039" fill-opacity="1"><g transform="translate(157.594311, 61.060314)"><g><path d="M 0.578125 0 L 0.578125 -4.0625 L 1.578125 -4.0625 L 1.578125 -3.453125 L 1.65625 -3.453125 C 1.75 -3.671875 1.875 -3.832031 2.03125 -3.9375 C 2.195312 -4.039062 2.394531 -4.09375 2.625 -4.09375 C 2.851562 -4.09375 3.03125 -4.054688 3.15625 -3.984375 L 2.984375 -3.109375 L 2.90625 -3.09375 C 2.832031 -3.113281 2.765625 -3.128906 2.703125 -3.140625 C 2.640625 -3.160156 2.566406 -3.171875 2.484375 -3.171875 C 2.203125 -3.171875 1.984375 -3.066406 1.828125 -2.859375 C 1.679688 -2.660156 1.609375 -2.34375 1.609375 -1.90625 L 1.609375 0 Z M 0.578125 0 "/></g></g></g><g fill="#152039" fill-opacity="1"><g transform="translate(164.49083, 61.060314)"><g><path d="M 2.359375 0.078125 C 1.960938 0.078125 1.613281 0 1.3125 -0.15625 C 1.007812 -0.320312 0.773438 -0.5625 0.609375 -0.875 C 0.441406 -1.195312 0.359375 -1.582031 0.359375 -2.03125 C 0.359375 -2.476562 0.441406 -2.859375 0.609375 -3.171875 C 0.773438 -3.492188 1.007812 -3.734375 1.3125 -3.890625 C 1.613281 -4.054688 1.960938 -4.140625 2.359375 -4.140625 C 2.753906 -4.140625 3.101562 -4.054688 3.40625 -3.890625 C 3.707031 -3.734375 3.941406 -3.492188 4.109375 -3.171875 C 4.273438 -2.859375 4.359375 -2.476562 4.359375 -2.03125 C 4.359375 -1.582031 4.273438 -1.195312 4.109375 -0.875 C 3.941406 -0.5625 3.707031 -0.320312 3.40625 -0.15625 C 3.101562 0 2.753906 0.078125 2.359375 0.078125 Z M 2.359375 -0.78125 C 2.992188 -0.78125 3.3125 -1.195312 3.3125 -2.03125 C 3.3125 -2.457031 3.226562 -2.769531 3.0625 -2.96875 C 2.90625 -3.175781 2.671875 -3.28125 2.359375 -3.28125 C 1.734375 -3.28125 1.421875 -2.863281 1.421875 -2.03125 C 1.421875 -1.195312 1.734375 -0.78125 2.359375 -0.78125 Z M 2.359375 -0.78125 "/></g></g></g><g fill="#152039" fill-opacity="1"><g transform="translate(172.924707, 61.060314)"><g><path d="M 0.71875 0 L 0.71875 -3.25 L 0.140625 -3.25 L 0.140625 -4.0625 L 0.71875 -4.0625 C 0.675781 -4.238281 0.65625 -4.398438 0.65625 -4.546875 C 0.65625 -4.804688 0.710938 -5.023438 0.828125 -5.203125 C 0.941406 -5.390625 1.109375 -5.53125 1.328125 -5.625 C 1.554688 -5.726562 1.820312 -5.78125 2.125 -5.78125 C 2.570312 -5.78125 2.90625 -5.703125 3.125 -5.546875 L 2.890625 -4.796875 L 2.8125 -4.78125 C 2.65625 -4.882812 2.457031 -4.9375 2.21875 -4.9375 C 2.039062 -4.9375 1.90625 -4.890625 1.8125 -4.796875 C 1.71875 -4.710938 1.671875 -4.59375 1.671875 -4.4375 C 1.671875 -4.375 1.675781 -4.3125 1.6875 -4.25 C 1.695312 -4.195312 1.710938 -4.132812 1.734375 -4.0625 L 2.890625 -4.0625 L 2.890625 -3.25 L 1.734375 -3.25 L 1.734375 0 Z M 0.71875 0 "/></g></g></g><g fill="#152039" fill-opacity="1"><g transform="translate(179.566843, 61.060314)"><g><path d="M 1.09375 -4.546875 C 0.90625 -4.546875 0.753906 -4.601562 0.640625 -4.71875 C 0.523438 -4.832031 0.46875 -4.976562 0.46875 -5.15625 C 0.46875 -5.320312 0.523438 -5.460938 0.640625 -5.578125 C 0.753906 -5.691406 0.90625 -5.75 1.09375 -5.75 C 1.21875 -5.75 1.328125 -5.722656 1.421875 -5.671875 C 1.515625 -5.617188 1.585938 -5.546875 1.640625 -5.453125 C 1.691406 -5.367188 1.71875 -5.269531 1.71875 -5.15625 C 1.71875 -5.039062 1.691406 -4.9375 1.640625 -4.84375 C 1.585938 -4.75 1.515625 -4.675781 1.421875 -4.625 C 1.328125 -4.570312 1.21875 -4.546875 1.09375 -4.546875 Z M 0.578125 0 L 0.578125 -4.0625 L 1.609375 -4.0625 L 1.609375 0 Z M 0.578125 0 "/></g></g></g><g fill="#152039" fill-opacity="1"><g transform="translate(185.464262, 61.060314)"><g><path d="M 2.796875 -0.96875 L 3.0625 -0.21875 C 2.957031 -0.125 2.820312 -0.0507812 2.65625 0 C 2.488281 0.0507812 2.296875 0.078125 2.078125 0.078125 C 1.640625 0.078125 1.304688 -0.0390625 1.078125 -0.28125 C 0.847656 -0.519531 0.734375 -0.867188 0.734375 -1.328125 L 0.734375 -3.25 L 0.125 -3.25 L 0.125 -4.0625 L 0.734375 -4.0625 L 0.734375 -4.859375 L 1.765625 -5.03125 L 1.765625 -4.0625 L 2.921875 -4.0625 L 2.921875 -3.25 L 1.765625 -3.25 L 1.765625 -1.40625 C 1.765625 -1.195312 1.804688 -1.046875 1.890625 -0.953125 C 1.972656 -0.867188 2.09375 -0.828125 2.25 -0.828125 C 2.4375 -0.828125 2.597656 -0.875 2.734375 -0.96875 Z M 2.796875 -0.96875 "/></g></g></g></g></g></g></svg>